<svg version="1.1" viewBox="0 0 200 200" xmlns="http://www.w3.org/2000/svg" xmlns:xlink="http://www.w3.org/1999/xlink">
  <defs>
    <filter id="filter2" x="-4.1925e-6" y="-4.1925e-6" width="1" height="1" style="color-interpolation-filters:sRGB">
      <feGaussianBlur in="SourceGraphic" result="result6" stdDeviation="0.00034937549"/>
      <feColorMatrix in="SourceGraphic" result="result7" values="1 0 0 0 0 0 1 0 0 0 0 0 1 0 0 0 0 0 1 0 "/>
      <feComposite in="result6" in2="result7" operator="in"/>
    </filter>
    <radialGradient id="radialGradient4" cx="100" cy="100" r="100" gradientUnits="userSpaceOnUse">
      <stop style="stop-color:#033dff" offset=".81865"/>
      <stop style="stop-color:#3635c5;stop-opacity:0" offset=".96028"/>
    </radialGradient>
  </defs>
  <circle transform="matrix(1.0816 0 0 1.0816 -8.1565 -8.1565)" cx="100" cy="100" r="100" fill="#5050d2" style="fill:url(#radialGradient4);filter:url(#filter2)"/>
  <circle cx="100" cy="100" r="83.197" fill="#5050d2" style="fill:#2820ac;stroke-width:.83197"/>
  <path id="graasp-logo" d="m79.033 79.268c0.09586 0.08278 0.40087 0.31372 0.78867 0.2963 1.0632-0.04357 1.8039-1.7908 2.0653-2.3965 1.2592-2.8932 2.8497-5.6209 4.4444-8.3267 2.5926-4.4052 4.8801-9.3638 11.834-18.043 2.7712-3.464 2.2353-2.8932 5.5468-5.83 1.7124-1.5207 3.5642-2.8322 5.6862-3.6732 2.2745-0.90196 4.5577-0.77995 6.2962 1.0152 1.7516 1.8083 1.0501 4.0043 0.19608 6.0566-0.64053 1.5468-1.451 2.5141-2.8453 4.2091-0.96731 1.1765-1.3159 1.5599-2.0654 2.4749-0.94116 1.146-2.2266 2.8758-3.5599 5.2505-5.1721 9.3681-8.8409 16.283-9.5424 17.817-0.22223 0.48366-0.56645 1.3551-0.31372 2.3006 0.16122 0.59259 0.35448 1.1062 0.74074 1.2418 0.86345 0.30308 1.7952-1.1372 2.244-2.0436 6.4531-12.959 7.6819-17.194 16.906-28.252 2.0566-2.4662 4.6492-5.7734 6.9455-8.013 1.6296-1.5904 3.4727-2.9455 5.5599-3.8823 2.5708-1.1547 5.8039-0.87581 7.0806 0.71895 0.488 0.61002 0.77993 1.2244 0.92373 1.8344 0.38344 1.6383-0.14815 3.22-1.159 4.9586-1.8606 3.1939-4.2483 5.1459-4.976 5.7603-2.1699 1.83-4.0435 4.5141-7.7864 9.8823-6.7407 9.6601-10.218 20.553-8.7102 21.568 0.0479 0.03485 0.23093 0.13944 0.46187 0.13508 1.2288-0.02614 2.0697-3.1547 2.3224-4.0261 0.37473-1.2897 2.4749-5.0588 6.6753-12.597 2.5926-4.6492 4.2222-7.5729 7.2374-10.95 2.976-3.3289 7.0021-7.7908 10.911-6.9063 1.7691 0.40087 3.3856 1.8998 3.9782 3.6514 0.21351 0.62745 0.66667 2.1961-0.51851 5.2156-1.4597 3.708-3.6993 5.3464-5.878 7.769-1.586 1.7647-3.0152 4.4749-5.8736 9.8953-2.0653 3.9172-4.5708 9.1851-6.9324 15.686-0.19172 0.63616-0.69717 2.4226-2.2048 3.39-1.9826 1.2723-4.5316 0.4488-5.4988 0.1743-5.6427-1.6035-11.651-0.0262-15.895 1.0893 0 0-9.0239 2.3703-15.399 10.118-2.4139 2.9281-3.8998 6.0392-4.135 6.5533-0.8976 1.9695-1.9303 4.4618-2.2832 7.9041-0.69716 6.8278 2.0566 12.03 7.6383 15.791 9.1633 6.1699 22.971 4.7276 29.69-1.6993 1.0937-1.0457 3.4597-3.3072 3.1895-6.1568-0.20481-2.1525-1.8736-4.2658-3.9433-5.0806-3.647-1.4379-5.8169 2.2309-12.305 2.562-2.3747 0.12201-6.1873 0.31809-8.4313-2.3486-2.5882-3.0806-0.93682-7.9694-0.8366-8.2614 0.78866-2.2658 2.2178-3.6819 2.9934-4.3486 2.2178-1.525 6.8845-4.2919 13.355-4.8583 2.8845-0.25273 8.7232-0.77559 14.392 2.8017 8.1176 5.1285 9.4858 14.409 9.6382 15.577 1.4771 11.264-6.6274 19.721-9.904 23.133-6.7102 6.9934-14.274 9.3768-18.531 10.662-3.7821 1.1416-15.438 4.4749-28.81-0.42702-8.4836-3.1111-13.669-8.0784-14.806-9.1851-3.5032-3.4161-6.3703-7.4553-8.4749-11.939-0.93681-2-3.0632-6.9063-3.9346-14.928-2.0958-19.29 4.2701-37.982 11.455-48.392 2.7886-4.0435 8.1089-12.104 10.488-14.549 1.4466-1.4858 3.2462-3.5686 7.8605-6.1655 1.403-0.78866 2.8627-1.4945 4.4618-1.647 1.1634-0.10893 2.0305 0.21786 2.5185 0.85838 0.5403 0.71023 0.51851 1.695 0.28758 2.6971-0.92809 4.0305-5.1459 9.0587-7.9389 13.708-2.5708 4.2701-4.4923 9.1503-3.3202 10.17z" fill="#10b543" stroke-width="7.1039" style="fill:#13a343"/>
</svg>
