<?xml version="1.0" encoding="utf-8"?>
<!-- Generator: Adobe Illustrator 19.2.1, SVG Export Plug-In . SVG Version: 6.00 Build 0)  -->
<svg version="1.1" id="layer" xmlns="http://www.w3.org/2000/svg" xmlns:xlink="http://www.w3.org/1999/xlink" x="0px" y="0px"
	 viewBox="0 200 652 250" style="enable-background:new 0 0 652 652;" xml:space="preserve">
<style type="text/css">
	.st0{fill:#B51F1F;}
	.st1{fill:#005684;}
</style>
<polygon class="st0" points="230.8,274.8 211.5,274.8 211.5,255.8 198.2,255.8 198.2,308.5 211.5,308.5 211.5,286 230.8,286
	230.8,308.5 244,308.5 244,255.8 230.8,255.8 "/>
<polygon class="st0" points="269.5,285.6 293.6,285.6 293.6,275.6 269.5,275.6 269.5,266 295.3,266 295.3,255.8 256.3,255.8
	256.3,308.5 297.6,308.5 297.6,298.1 269.5,298.1 "/>
<polygon class="st0" points="320.7,255.8 307.6,255.8 307.6,308.6 341.3,308.6 341.3,297.4 320.7,297.4 "/>
<polygon class="st0" points="364.2,293.3 353.3,255.9 339.2,255.9 357.3,308.6 370.7,308.6 389,255.9 375,255.9 "/>
<polygon class="st0" points="409.2,285.5 433.3,285.5 433.3,275.5 409.2,275.5 409.2,266 435,266 435,255.7 396.1,255.7
	396.1,308.4 437.4,308.4 437.4,298.1 409.2,298.1 "/>
<polygon class="st0" points="482.9,255.7 442.3,255.7 442.3,266.2 456,266.2 456,308.5 469.3,308.5 469.3,266.2 482.9,266.2 "/>
<path class="st0" d="M513.7,255.9h-13.7l-19.6,52.7h14l2.6-8.4h19.4l2.6,8.4h14L513.7,255.9z M500.1,290.6l6.5-22.3l6.9,22.3H500.1z
	"/>
<g>
	<path class="st0" d="M571.9,278.6c-3-1-10.5-2.5-16.1-3.1c-2.2-0.3-6.7-0.9-6.7-4.9c0-2.5,2.6-5.5,7.8-5.5c3.4,0,6.7,1.3,8.6,2.3
		c0.6,0.3,1.2,0.7,1.7,1.1l0,0l4,2.8l7.3-8.3c-4.5-3.9-10.8-8.3-21.4-8.3c-9.1,0-21.2,4-21.2,17.6c0,11.3,11,13.7,14.2,14.3
		c2.8,0.6,5.8,1,8.7,1.3c3.9,0.5,9.2,1.2,9.2,5.4c0,3.7-4.5,6.1-9.7,6.1c-3.1,0-6.6-0.7-10.2-2.5c-1.1-0.6-2-1.2-2.7-1.7l-1.9-1.4
		l-7.6,8.5c3.7,3.6,9.8,7.5,21.1,7.5c7.4,0,15-1.6,19.8-7.1c2.8-3.2,4.2-7.4,4.2-11.2C581,285.5,578,280.8,571.9,278.6"/>
	<path class="st1" d="M104.6,309.9c-0.9,0-1.6,0.7-1.6,1.6c0,0.9,0.7,1.6,1.6,1.6c0.9,0,1.6-0.7,1.6-1.6
		C106.2,310.7,105.5,309.9,104.6,309.9 M113.1,318.2c0-0.9-0.7-1.6-1.6-1.6c-0.9,0-1.6,0.7-1.6,1.6c0,0.9,0.7,1.6,1.6,1.6
		C112.3,319.9,113.1,319.1,113.1,318.2 M115.3,322.6c0.9,0,1.6-0.7,1.6-1.6c0-0.9-0.7-1.6-1.6-1.6c-0.9,0-1.6,0.7-1.6,1.6
		C113.6,321.8,114.4,322.6,115.3,322.6 M113.4,328.7c-0.9,0-1.6,0.7-1.6,1.6c0,0.9,0.7,1.6,1.6,1.6c0.9,0,1.6-0.7,1.6-1.6
		C115.1,329.4,114.3,328.7,113.4,328.7 M92.7,314.3c0-0.9-0.7-1.6-1.6-1.6c-0.9,0-1.6,0.7-1.6,1.6c0,0.9,0.7,1.6,1.6,1.6
		C92,316,92.7,315.2,92.7,314.3 M76.4,314.9c0-0.9-0.7-1.6-1.6-1.6c-0.9,0-1.6,0.7-1.6,1.6c0,0.9,0.7,1.6,1.6,1.6
		C75.7,316.5,76.4,315.8,76.4,314.9 M70.4,311.1c-0.9,0-1.6,0.7-1.6,1.6c0,0.9,0.7,1.6,1.6,1.6c0.9,0,1.6-0.7,1.6-1.6
		C72,311.8,71.3,311.1,70.4,311.1 M64.9,304.8c-0.9,0-1.6,0.7-1.6,1.6c0,0.9,0.7,1.6,1.6,1.6c0.9,0,1.6-0.7,1.6-1.6
		C66.5,305.5,65.8,304.8,64.9,304.8 M60.4,291.9c0.9,0,1.6-0.7,1.6-1.6c0-0.9-0.7-1.6-1.6-1.6c-0.9,0-1.6,0.7-1.6,1.6
		C58.8,291.1,59.5,291.9,60.4,291.9 M61.4,283.2c0-0.9-0.7-1.6-1.6-1.6c-0.9,0-1.6,0.7-1.6,1.6c0,0.9,0.7,1.6,1.6,1.6
		C60.6,284.8,61.4,284.1,61.4,283.2 M87.5,226.5c0.9,0,1.6-0.7,1.6-1.6c0-0.9-0.7-1.6-1.6-1.6c-0.9,0-1.6,0.7-1.6,1.6
		C85.9,225.8,86.6,226.5,87.5,226.5 M97.3,219.9c0.9,0,1.6-0.7,1.6-1.6c0-0.9-0.7-1.6-1.6-1.6c-0.9,0-1.6,0.7-1.6,1.6
		C95.6,219.1,96.4,219.8,97.3,219.9 M89.6,222.6c0.9,0,1.6-0.7,1.6-1.6c0-0.9-0.7-1.6-1.6-1.6c-0.9,0-1.6,0.7-1.6,1.6
		C88,221.9,88.7,222.6,89.6,222.6 M74.5,230.2c0.9,0,1.6-0.7,1.6-1.6c0-0.9-0.7-1.6-1.6-1.6c-0.9,0-1.6,0.7-1.6,1.6
		C72.8,229.5,73.6,230.2,74.5,230.2 M67.7,234.6c0.9,0,1.6-0.7,1.6-1.6c0-0.9-0.7-1.6-1.6-1.6c-0.9,0-1.6,0.7-1.6,1.6
		C66.1,233.9,66.8,234.6,67.7,234.6 M59.7,240.9c0.9,0,1.6-0.7,1.6-1.6c0-0.9-0.7-1.6-1.6-1.6c-0.9,0-1.6,0.7-1.6,1.6
		C58.1,240.2,58.8,240.9,59.7,240.9 M32.8,275.7c0.9,0,1.6-0.7,1.6-1.6c0-0.9-0.7-1.6-1.6-1.6c-0.9,0-1.6,0.7-1.6,1.6
		C31.2,275,31.9,275.7,32.8,275.7 M45.9,255c0.9,0,1.6-0.7,1.6-1.6c0-0.9-0.7-1.6-1.6-1.6c-0.9,0-1.6,0.7-1.6,1.6
		C44.3,254.3,45,255,45.9,255 M23.7,304.4c0.9,0,1.6-0.7,1.6-1.6c0-0.9-0.7-1.6-1.6-1.6c-0.9,0-1.6,0.7-1.6,1.6
		C22.1,303.6,22.8,304.4,23.7,304.4 M24.8,298.5c0.9,0,1.6-0.7,1.6-1.6c0-0.9-0.7-1.6-1.6-1.6c-0.9,0-1.6,0.7-1.6,1.6
		C23.2,297.7,23.9,298.5,24.8,298.5 M26.6,291.7c0.9,0,1.6-0.7,1.6-1.6c0-0.9-0.7-1.6-1.6-1.6s-1.6,0.7-1.6,1.6
		C25,291,25.7,291.7,26.6,291.7 M27.6,327c-0.9,0-1.6,0.7-1.6,1.6c0,0.9,0.7,1.6,1.6,1.6c0.9,0,1.6-0.7,1.6-1.6
		C29.3,327.7,28.5,327,27.6,327 M23.8,323.9c0-0.9-0.7-1.6-1.6-1.6s-1.6,0.7-1.6,1.6c0,0.9,0.7,1.6,1.6,1.6S23.8,324.8,23.8,323.9
		 M25.1,337.6c0-0.9-0.7-1.6-1.6-1.6c-0.9,0-1.6,0.7-1.6,1.6c0,0.9,0.7,1.6,1.6,1.6S25.1,338.5,25.1,337.6 M26.4,345
		c0-0.9-0.7-1.6-1.6-1.6s-1.6,0.7-1.6,1.6c0,0.9,0.7,1.6,1.6,1.6S26.4,345.9,26.4,345 M27,320.4c0-0.9-0.7-1.6-1.6-1.6
		c-0.9,0-1.6,0.7-1.6,1.6c0,0.9,0.7,1.6,1.6,1.6C26.3,322,27,321.3,27,320.4 M27.6,321.9c-0.9,0-1.6,0.7-1.6,1.6
		c0,0.9,0.7,1.6,1.6,1.6s1.6-0.7,1.6-1.6C29.2,322.7,28.5,321.9,27.6,321.9 M22.1,319.5c0.9,0,1.6-0.7,1.6-1.6
		c0-0.9-0.7-1.6-1.6-1.6c-0.9,0-1.6,0.7-1.6,1.6C20.5,318.8,21.2,319.5,22.1,319.5 M21.8,328.6c0,0.9,0.7,1.6,1.6,1.6
		c0.9,0,1.6-0.7,1.6-1.6c0-0.9-0.7-1.6-1.6-1.6C22.5,327,21.8,327.7,21.8,328.6 M24.5,333.1c0-0.9-0.7-1.6-1.6-1.6
		c-0.9,0-1.6,0.7-1.6,1.6c0,0.9,0.7,1.6,1.6,1.6C23.7,334.8,24.5,334,24.5,333.1 M28.3,333c-0.9,0-1.6,0.7-1.6,1.6
		c0,0.9,0.7,1.6,1.6,1.6c0.9,0,1.6-0.7,1.6-1.6C30,333.7,29.2,333,28.3,333 M28.8,353.5c0.9,0,1.6-0.7,1.6-1.6
		c0-0.9-0.7-1.6-1.6-1.6c-0.9,0-1.6,0.7-1.6,1.6C27.2,352.7,27.9,353.5,28.8,353.5 M29.7,356c0-0.9-0.7-1.6-1.6-1.6
		c-0.9,0-1.6,0.7-1.6,1.6c0,0.9,0.7,1.6,1.6,1.6C29,357.7,29.7,356.9,29.7,356 M32.4,360.3c0-0.9-0.7-1.6-1.6-1.6
		c-0.9,0-1.6,0.7-1.6,1.6c0,0.9,0.7,1.6,1.6,1.6C31.6,362,32.4,361.2,32.4,360.3 M31.8,363.6c-0.9,0-1.6,0.7-1.6,1.6
		c0,0.9,0.7,1.6,1.6,1.6c0.9,0,1.6-0.7,1.6-1.6C33.4,364.4,32.7,363.6,31.8,363.6 M39.5,377.9c-0.9,0-1.6,0.7-1.6,1.6
		c0,0.9,0.7,1.6,1.6,1.6c0.9,0,1.6-0.7,1.6-1.6C41.1,378.6,40.4,377.9,39.5,377.9 M45.9,386.5c-0.9,0-1.6,0.7-1.6,1.6
		s0.7,1.6,1.6,1.6c0.9,0,1.6-0.7,1.6-1.6S46.8,386.5,45.9,386.5 M64.1,404.5c-0.9,0-1.6,0.7-1.6,1.6s0.7,1.6,1.6,1.6
		c0.9,0,1.6-0.7,1.6-1.6C65.8,405.2,65,404.5,64.1,404.5 M92.2,420.1c-0.9,0-1.6,0.7-1.6,1.6c0,0.9,0.7,1.6,1.6,1.6
		c0.9,0,1.6-0.7,1.6-1.6C93.9,420.8,93.1,420.1,92.2,420.1 M98.6,422.3c-0.9,0-1.6,0.7-1.6,1.6c0,0.9,0.7,1.6,1.6,1.6
		c0.9,0,1.6-0.7,1.6-1.6C100.2,423,99.5,422.3,98.6,422.3 M133.6,426.7c-0.9,0-1.6,0.7-1.6,1.6c0,0.9,0.7,1.6,1.6,1.6
		c0.9,0,1.6-0.7,1.6-1.6C135.2,427.4,134.5,426.7,133.6,426.7 M157.8,423.1c-0.9,0-1.6,0.7-1.6,1.6c0,0.9,0.7,1.6,1.6,1.6
		c0.9,0,1.6-0.7,1.6-1.6C159.4,423.8,158.7,423.1,157.8,423.1 M22.9,310.2c0.9,0,1.6-0.7,1.6-1.6c0-0.9-0.7-1.6-1.6-1.6
		c-0.9,0-1.6,0.7-1.6,1.6C21.3,309.5,22,310.2,22.9,310.2 M33.9,323.8c0-0.9-0.7-1.6-1.6-1.6c-0.9,0-1.6,0.7-1.6,1.6
		c0,0.9,0.7,1.6,1.6,1.6C33.2,325.5,33.9,324.7,33.9,323.8 M29.2,315.8c0,0.9,0.7,1.6,1.6,1.6c0.9,0,1.6-0.7,1.6-1.6
		c0-0.9-0.7-1.6-1.6-1.6C30,314.2,29.2,314.9,29.2,315.8 M38.3,347.1c0,0.9,0.7,1.6,1.6,1.6c0.9,0,1.6-0.7,1.6-1.6
		c0-0.9-0.7-1.7-1.6-1.7C39.1,345.4,38.3,346.2,38.3,347.1 M37.3,333.1c0.9,0,1.6-0.7,1.6-1.6c0-0.9-0.7-1.6-1.6-1.6
		c-0.9,0-1.6,0.7-1.6,1.6C35.7,332.3,36.4,333.1,37.3,333.1 M28.4,346.3c0,0.9,0.7,1.6,1.6,1.6c0.9,0,1.6-0.7,1.6-1.6
		c0-0.9-0.7-1.6-1.6-1.6C29.2,344.6,28.4,345.3,28.4,346.3 M26.9,311.8c0,0.9,0.7,1.6,1.6,1.6c0.9,0,1.6-0.7,1.6-1.6
		c0-0.9-0.7-1.6-1.6-1.6C27.7,310.2,26.9,310.9,26.9,311.8 M25.7,313.6c0-0.9-0.7-1.6-1.6-1.6c-0.9,0-1.6,0.7-1.6,1.6
		c0,0.9,0.7,1.6,1.6,1.6C25,315.2,25.7,314.5,25.7,313.6 M32.2,328.5c0,0.9,0.7,1.6,1.6,1.6c0.9,0,1.6-0.7,1.6-1.6
		c0-0.9-0.7-1.6-1.6-1.6C32.9,326.8,32.2,327.6,32.2,328.5 M30,332.3c0,0.9,0.7,1.6,1.6,1.6c0.9,0,1.6-0.7,1.6-1.6
		c0-0.9-0.7-1.6-1.6-1.6C30.7,330.6,30,331.4,30,332.3 M33.6,341.6c0-0.9-0.7-1.6-1.6-1.6c-0.9,0-1.6,0.7-1.6,1.6
		c0,0.9,0.7,1.6,1.6,1.6C32.9,343.2,33.6,342.5,33.6,341.6 M34.4,344.9c-0.9,0-1.6,0.7-1.6,1.6c0,0.9,0.7,1.6,1.6,1.6
		c0.9,0,1.6-0.7,1.6-1.6C36,345.6,35.3,344.9,34.4,344.9 M36.5,342.8c0,0.9,0.7,1.6,1.6,1.6c0.9,0,1.6-0.7,1.6-1.6
		c0-0.9-0.7-1.6-1.6-1.6C37.2,341.1,36.5,341.9,36.5,342.8 M36.7,339.9c0.9,0,1.6-0.7,1.6-1.6c0-0.9-0.7-1.6-1.6-1.6
		c-0.9,0-1.6,0.7-1.6,1.6C35,339.1,35.8,339.9,36.7,339.9 M34.9,361.1c0.9,0,1.6-0.7,1.6-1.6c0-0.9-0.7-1.6-1.6-1.6
		c-0.9,0-1.6,0.7-1.6,1.6C33.2,360.4,34,361.1,34.9,361.1 M41.6,357.4c-0.9,0-1.6,0.7-1.6,1.6c0,0.9,0.7,1.6,1.6,1.6
		c0.9,0,1.6-0.7,1.6-1.6C43.3,358.1,42.5,357.4,41.6,357.4 M40.3,363.2c0-0.9-0.7-1.6-1.6-1.6c-0.9,0-1.6,0.7-1.6,1.6
		c0,0.9,0.7,1.6,1.6,1.6C39.5,364.8,40.3,364.1,40.3,363.2 M37,348.4c-0.9,0-1.6,0.7-1.6,1.6c0,0.9,0.7,1.6,1.6,1.6
		c0.9,0,1.6-0.7,1.6-1.6C38.6,349.2,37.9,348.4,37,348.4 M32.8,353.1c0.9,0,1.6-0.7,1.6-1.6c0-0.9-0.7-1.6-1.6-1.6
		c-0.9,0-1.6,0.7-1.6,1.6C31.1,352.4,31.9,353.1,32.8,353.1 M46.1,355.5c0-0.9-0.7-1.6-1.6-1.6c-0.9,0-1.6,0.7-1.6,1.6
		c0,0.9,0.7,1.6,1.6,1.6C45.4,357.2,46.1,356.4,46.1,355.5 M41.4,371.8c0.9,0,1.6-0.7,1.6-1.6c0-0.9-0.7-1.6-1.6-1.6
		c-0.9,0-1.6,0.7-1.6,1.6C39.7,371,40.5,371.8,41.4,371.8 M36.3,369c0.9,0,1.6-0.7,1.6-1.6c0-0.9-0.7-1.6-1.6-1.6
		c-0.9,0-1.6,0.7-1.6,1.6C34.7,368.3,35.4,369,36.3,369 M44.1,381.1c0.9,0,1.6-0.7,1.6-1.6c0-0.9-0.7-1.6-1.6-1.6
		c-0.9,0-1.6,0.7-1.6,1.6C42.5,380.3,43.2,381.1,44.1,381.1 M45.3,383.9c0,0.9,0.7,1.6,1.6,1.6c0.9,0,1.6-0.7,1.6-1.6
		c0-0.9-0.7-1.6-1.6-1.6C46,382.3,45.3,383,45.3,383.9 M32.6,335c-0.9,0-1.6,0.7-1.6,1.6c0,0.9,0.7,1.6,1.6,1.6
		c0.9,0,1.6-0.7,1.6-1.6C34.2,335.8,33.5,335,32.6,335 M26.8,342.5c0.9,0,1.6-0.7,1.6-1.6c0-0.9-0.7-1.6-1.6-1.6
		c-0.9,0-1.6,0.7-1.6,1.6C25.2,341.8,25.9,342.5,26.8,342.5 M40.7,351c0,0.9,0.7,1.6,1.6,1.6s1.6-0.7,1.6-1.6c0-0.9-0.7-1.6-1.6-1.6
		C41.5,349.3,40.7,350.1,40.7,351 M31.9,357.8c0.9,0,1.6-0.7,1.6-1.6c0-0.9-0.7-1.6-1.6-1.6c-0.9,0-1.6,0.7-1.6,1.6
		C30.2,357,31,357.8,31.9,357.8 M38.7,352.7c-0.9,0-1.6,0.7-1.6,1.6c0,0.9,0.7,1.6,1.6,1.6c0.9,0,1.6-0.7,1.6-1.6
		C40.4,353.5,39.6,352.7,38.7,352.7 M40.5,366c0,0.9,0.7,1.6,1.6,1.6c0.9,0,1.6-0.7,1.6-1.6c0-0.9-0.7-1.6-1.6-1.6
		C41.3,364.3,40.5,365.1,40.5,366 M35,370.2c-0.9,0-1.6,0.7-1.6,1.6c0,0.9,0.7,1.6,1.6,1.6c0.9,0,1.6-0.7,1.6-1.6
		C36.7,370.9,35.9,370.2,35,370.2 M40.4,374.9c0-0.9-0.7-1.6-1.6-1.6c-0.9,0-1.6,0.7-1.6,1.6c0,0.9,0.7,1.6,1.6,1.6
		S40.4,375.8,40.4,374.9 M42.6,381.9c-0.9,0-1.6,0.7-1.6,1.6c0,0.9,0.7,1.6,1.6,1.6c0.9,0,1.6-0.7,1.6-1.6
		C44.2,382.6,43.5,381.9,42.6,381.9 M49.3,390.6c-0.9,0-1.6,0.7-1.6,1.6c0,0.9,0.7,1.6,1.6,1.6c0.9,0,1.6-0.7,1.6-1.6
		C50.9,391.4,50.2,390.6,49.3,390.6 M56,397.5c-0.9,0-1.6,0.7-1.6,1.6c0,0.9,0.7,1.6,1.6,1.6c0.9,0,1.6-0.7,1.6-1.6
		C57.6,398.2,56.9,397.5,56,397.5 M83.9,416.5c-0.9,0-1.6,0.7-1.6,1.6c0,0.9,0.7,1.6,1.6,1.6c0.9,0,1.6-0.7,1.6-1.6
		C85.6,417.3,84.8,416.5,83.9,416.5 M77.1,413.1c-0.9,0-1.6,0.7-1.6,1.6c0,0.9,0.7,1.6,1.6,1.6c0.9,0,1.6-0.7,1.6-1.6
		C78.8,413.8,78,413.1,77.1,413.1 M129,426.7c-0.9,0-1.6,0.7-1.6,1.6c0,0.9,0.7,1.6,1.6,1.6c0.9,0,1.6-0.7,1.6-1.6
		C130.6,427.5,129.9,426.7,129,426.7 M118.2,426.2c-0.9,0-1.6,0.7-1.6,1.6c0,0.9,0.7,1.6,1.6,1.6c0.9,0,1.6-0.7,1.6-1.6
		C119.8,426.9,119.1,426.2,118.2,426.2 M149.9,425c-0.9,0-1.6,0.7-1.6,1.6c0,0.9,0.7,1.6,1.6,1.6c0.9,0,1.6-0.7,1.6-1.6
		C151.5,425.7,150.8,425,149.9,425 M229.2,360.4c-0.9,0-1.6,0.7-1.6,1.6c0,0.9,0.7,1.6,1.6,1.6c0.9,0,1.6-0.7,1.6-1.6
		C230.9,361.2,230.1,360.4,229.2,360.4 M172,418.1c-0.9,0-1.6,0.7-1.6,1.6c0,0.9,0.7,1.6,1.6,1.6c0.9,0,1.6-0.7,1.6-1.6
		C173.6,418.8,172.9,418.1,172,418.1 M221.4,375.8c-0.9,0-1.6,0.7-1.6,1.6c0,0.9,0.7,1.6,1.6,1.6c0.9,0,1.6-0.7,1.6-1.6
		C223,376.5,222.3,375.8,221.4,375.8 M208.9,392.1c-0.9,0-1.6,0.7-1.6,1.6c0,0.9,0.7,1.6,1.6,1.6c0.9,0,1.6-0.7,1.6-1.6
		C210.5,392.9,209.8,392.1,208.9,392.1 M190.4,408.1c-0.9,0-1.6,0.7-1.6,1.6c0,0.9,0.7,1.6,1.6,1.6c0.9,0,1.6-0.7,1.6-1.6
		C192,408.8,191.3,408.1,190.4,408.1 M182.8,412.8c-0.9,0-1.6,0.7-1.6,1.6c0,0.9,0.7,1.6,1.6,1.6c0.9,0,1.6-0.7,1.6-1.6
		C184.5,413.5,183.7,412.8,182.8,412.8 M225.5,368.3c-0.9,0-1.6,0.7-1.6,1.7c0,0.9,0.7,1.6,1.6,1.6s1.6-0.7,1.6-1.6
		C227.1,369.1,226.4,368.3,225.5,368.3 M230.8,356.3c-0.9,0-1.6,0.7-1.6,1.6c0,0.9,0.7,1.6,1.6,1.6s1.6-0.7,1.6-1.6
		C232.4,357,231.7,356.3,230.8,356.3 M227.5,364.2c-0.9,0-1.6,0.7-1.6,1.6c0,0.9,0.7,1.6,1.6,1.6c0.9,0,1.6-0.7,1.6-1.6
		C229.2,364.9,228.5,364.2,227.5,364.2 M233.5,348c-0.9,0-1.6,0.7-1.6,1.6c0,0.9,0.7,1.6,1.6,1.6c0.9,0,1.6-0.7,1.6-1.6
		C235.1,348.7,234.4,348,233.5,348 M232.1,352.4c-0.9,0-1.6,0.7-1.6,1.6c0,0.9,0.7,1.6,1.6,1.6s1.6-0.7,1.6-1.6
		C233.8,353.1,233,352.4,232.1,352.4 M237.4,322c0.9,0,1.6-0.7,1.6-1.6c0-0.9-0.7-1.6-1.6-1.6c-0.9,0-1.6,0.7-1.6,1.6
		C235.7,321.2,236.5,322,237.4,322 M237.1,326.6c-0.9,0-1.6,0.7-1.6,1.6c0,0.9,0.7,1.6,1.6,1.6c0.9,0,1.6-0.7,1.6-1.6
		C238.7,327.4,238,326.6,237.1,326.6 M236.6,331.3c-0.9,0-1.6,0.7-1.6,1.6c0,0.9,0.7,1.6,1.6,1.6c0.9,0,1.6-0.7,1.6-1.6
		C238.3,332.1,237.5,331.3,236.6,331.3 M235,341.6c-0.9,0-1.6,0.7-1.6,1.6c0,0.9,0.7,1.6,1.6,1.6c0.9,0,1.6-0.7,1.6-1.6
		C236.6,342.3,235.9,341.6,235,341.6 M43.3,376.5c0.9,0,1.6-0.7,1.6-1.6c0-0.9-0.7-1.6-1.6-1.6c-0.9,0-1.6,0.7-1.6,1.6
		C41.7,375.8,42.4,376.5,43.3,376.5 M65.7,277.8c0.9,0,1.6-0.7,1.6-1.6c0-0.9-0.7-1.6-1.6-1.6c-0.9,0-1.6,0.7-1.6,1.6
		C64,277,64.8,277.8,65.7,277.8 M70.6,278.4c0,0.9,0.7,1.6,1.6,1.6c0.9,0,1.6-0.7,1.6-1.6c0-0.9-0.7-1.6-1.6-1.6
		C71.3,276.7,70.6,277.5,70.6,278.4 M71.9,270.7c0.9,0,1.6-0.7,1.6-1.6c0-0.9-0.7-1.6-1.6-1.6c-0.9,0-1.6,0.7-1.6,1.6
		C70.3,270,71,270.7,71.9,270.7 M75.5,263.4c0,0.9,0.7,1.6,1.6,1.6c0.9,0,1.6-0.7,1.6-1.6c0-0.9-0.7-1.6-1.6-1.6
		C76.2,261.8,75.5,262.5,75.5,263.4 M85.9,251.1c0.9,0,1.6-0.7,1.6-1.6c0-0.9-0.7-1.6-1.6-1.6c-0.9,0-1.6,0.7-1.6,1.6
		C84.2,250.4,84.9,251.1,85.9,251.1 M92.1,246.5c0,0.9,0.7,1.6,1.6,1.6c0.9,0,1.6-0.7,1.6-1.6c0-0.9-0.7-1.6-1.6-1.6
		C92.8,244.8,92.1,245.5,92.1,246.5 M92.3,241.3c-0.9,0-1.6,0.7-1.6,1.6c0,0.9,0.7,1.6,1.6,1.6c0.9,0,1.6-0.7,1.6-1.6
		C94,242,93.2,241.3,92.3,241.3 M98,246.4c0.9,0,1.6-0.7,1.6-1.6c0-0.9-0.7-1.6-1.6-1.6c-0.9,0-1.6,0.7-1.6,1.6
		C96.4,245.7,97.1,246.4,98,246.4 M100,239c-0.9,0-1.6,0.7-1.6,1.6c0,0.9,0.7,1.6,1.6,1.6c0.9,0,1.6-0.7,1.6-1.6
		C101.6,239.7,100.9,239,100,239 M89.7,248.5c0.9,0,1.6-0.7,1.6-1.6c0-0.9-0.7-1.6-1.6-1.6c-0.9,0-1.6,0.7-1.6,1.6
		C88.1,247.7,88.8,248.5,89.7,248.5 M88.4,240c0,0.9,0.7,1.6,1.6,1.6c0.9,0,1.6-0.7,1.6-1.6c0-0.9-0.7-1.6-1.6-1.6
		C89.2,238.4,88.4,239.1,88.4,240 M86.7,242.3c-0.9,0-1.6,0.7-1.6,1.6c0,0.9,0.7,1.6,1.6,1.6c0.9,0,1.6-0.7,1.6-1.6
		C88.4,243.1,87.6,242.3,86.7,242.3 M100.7,245c0,0.9,0.7,1.6,1.6,1.6c0.9,0,1.6-0.7,1.6-1.6c0-0.9-0.7-1.6-1.6-1.6
		C101.5,243.4,100.7,244.1,100.7,245 M93.9,239.9c0,0.9,0.7,1.6,1.6,1.6c0.9,0,1.6-0.7,1.6-1.6c0-0.9-0.7-1.6-1.6-1.6
		C94.6,238.2,93.9,238.9,93.9,239.9 M102.9,237.9c0,0.9,0.7,1.6,1.6,1.6c0.9,0,1.6-0.7,1.6-1.6c0-0.9-0.7-1.6-1.6-1.6
		C103.7,236.3,102.9,237,102.9,237.9 M99.8,234c-0.9,0-1.6,0.7-1.6,1.6c0,0.9,0.7,1.6,1.6,1.6c0.9,0,1.6-0.7,1.6-1.6
		C101.4,234.7,100.7,234,99.8,234 M93.6,227.5c0,0.9,0.7,1.6,1.6,1.6c0.9,0,1.6-0.7,1.6-1.6c0-0.9-0.7-1.6-1.6-1.6
		C94.4,225.9,93.6,226.6,93.6,227.5 M96.4,223c0,0.9,0.7,1.6,1.6,1.6c0.9,0,1.6-0.7,1.6-1.6c0-0.9-0.7-1.6-1.6-1.6
		C97.1,221.4,96.4,222.1,96.4,223 M97.8,227.3c0,0.9,0.7,1.6,1.6,1.6c0.9,0,1.6-0.7,1.6-1.6c0-0.9-0.7-1.6-1.6-1.6
		C98.5,225.7,97.8,226.4,97.8,227.3 M103.2,228.2c0,0.9,0.7,1.6,1.6,1.6c0.9,0,1.6-0.7,1.6-1.6c0-0.9-0.7-1.6-1.6-1.6
		S103.2,227.3,103.2,228.2 M105.3,231.5c-0.9,0-1.6,0.7-1.6,1.6c0,0.9,0.7,1.6,1.6,1.6c0.9,0,1.6-0.7,1.6-1.6
		C107,232.2,106.2,231.5,105.3,231.5 M108.1,227.3c0,0.9,0.7,1.6,1.6,1.6c0.9,0,1.6-0.7,1.6-1.6c0-0.9-0.7-1.6-1.6-1.6
		C108.8,225.6,108.1,226.4,108.1,227.3 M110.6,230.1c-0.9,0-1.6,0.7-1.6,1.6c0,0.9,0.7,1.6,1.6,1.6c0.9,0,1.6-0.7,1.6-1.6
		C112.3,230.9,111.5,230.1,110.6,230.1 M115.4,225.6c-0.9,0-1.6,0.7-1.6,1.6c0,0.9,0.7,1.6,1.6,1.6c0.9,0,1.6-0.7,1.6-1.6
		C117.1,226.4,116.3,225.6,115.4,225.6 M111.8,234.6c0,0.9,0.7,1.6,1.6,1.6c0.9,0,1.6-0.7,1.6-1.6c0-0.9-0.7-1.6-1.6-1.6
		C112.6,233,111.8,233.7,111.8,234.6 M108,237.9c0,0.9,0.7,1.6,1.6,1.6c0.9,0,1.6-0.7,1.6-1.6c0-0.9-0.7-1.6-1.6-1.6
		C108.8,236.3,108,237,108,237.9 M118.2,234.6c-0.9,0-1.6,0.7-1.6,1.6c0,0.9,0.7,1.6,1.6,1.6c0.9,0,1.6-0.7,1.6-1.6
		C119.9,235.4,119.2,234.6,118.2,234.6 M113.8,239.3c-0.9,0-1.6,0.7-1.6,1.6c0,0.9,0.7,1.6,1.6,1.6c0.9,0,1.6-0.7,1.6-1.6
		C115.4,240,114.7,239.3,113.8,239.3 M117.5,240.6c0,0.9,0.7,1.6,1.6,1.6c0.9,0,1.6-0.7,1.6-1.6c0-0.9-0.7-1.7-1.6-1.7
		C118.2,238.9,117.5,239.6,117.5,240.6 M129.2,244c0,0.9,0.7,1.6,1.6,1.6c0.9,0,1.6-0.7,1.6-1.6c0-0.9-0.7-1.6-1.6-1.6
		C129.9,242.4,129.2,243.1,129.2,244 M102.8,224.6c0.9,0,1.6-0.7,1.6-1.6c0-0.9-0.7-1.6-1.6-1.6c-0.9,0-1.6,0.7-1.6,1.6
		C101.2,223.9,101.9,224.6,102.8,224.6 M107.2,224.5c0.9,0,1.6-0.7,1.6-1.6c0-0.9-0.7-1.6-1.6-1.6c-0.9,0-1.6,0.7-1.6,1.6
		C105.5,223.8,106.2,224.5,107.2,224.5 M115.4,223.1c0,0.9,0.7,1.6,1.6,1.6c0.9,0,1.6-0.7,1.6-1.6c0-0.9-0.7-1.6-1.6-1.6
		C116.1,221.4,115.4,222.2,115.4,223.1 M116.7,230.1c-0.9,0-1.6,0.7-1.6,1.6c0,0.9,0.7,1.6,1.6,1.6c0.9,0,1.6-0.7,1.6-1.6
		C118.3,230.9,117.6,230.1,116.7,230.1 M121.8,227c-0.9,0-1.6,0.7-1.6,1.6c0,0.9,0.7,1.6,1.6,1.6c0.9,0,1.6-0.7,1.6-1.6
		C123.5,227.7,122.7,227,121.8,227 M128.4,225.9c-0.9,0-1.6,0.7-1.6,1.6c0,0.9,0.7,1.6,1.6,1.6c0.9,0,1.6-0.7,1.6-1.6
		C130,226.6,129.3,225.9,128.4,225.9 M122.1,231.9c-0.9,0-1.6,0.7-1.6,1.6c0,0.9,0.7,1.6,1.6,1.6c0.9,0,1.6-0.7,1.6-1.6
		C123.8,232.6,123,231.9,122.1,231.9 M123.9,236.7c0,0.9,0.7,1.6,1.6,1.6c0.9,0,1.6-0.7,1.6-1.6c0-0.9-0.7-1.6-1.6-1.6
		C124.6,235.1,123.9,235.8,123.9,236.7 M127.1,230.2c-0.9,0-1.6,0.7-1.6,1.6c0,0.9,0.7,1.6,1.6,1.6c0.9,0,1.6-0.7,1.6-1.6
		C128.7,230.9,128,230.2,127.1,230.2 M129.2,234.9c0,0.9,0.7,1.6,1.6,1.6c0.9,0,1.6-0.7,1.6-1.6c0-0.9-0.7-1.6-1.6-1.6
		C129.9,233.3,129.2,234,129.2,234.9 M135,232.7c0,0.9,0.7,1.6,1.6,1.6s1.6-0.7,1.6-1.6c0-0.9-0.7-1.6-1.6-1.6S135,231.8,135,232.7
		 M137.1,236.8c0,0.9,0.7,1.6,1.6,1.6c0.9,0,1.6-0.7,1.6-1.6c0-0.9-0.7-1.6-1.6-1.6C137.8,235.2,137.1,235.9,137.1,236.8
		 M151.2,241.7c0-0.9-0.7-1.6-1.6-1.6c-0.9,0-1.6,0.7-1.6,1.6c0,0.9,0.7,1.6,1.6,1.6C150.4,243.3,151.2,242.6,151.2,241.7
		 M121.6,241.3c0,0.9,0.7,1.6,1.6,1.6c0.9,0,1.6-0.7,1.6-1.6c0-0.9-0.7-1.6-1.6-1.6C122.3,239.7,121.6,240.4,121.6,241.3
		 M134.2,239.6c0-0.9-0.7-1.6-1.6-1.6s-1.6,0.7-1.6,1.6c0,0.9,0.7,1.6,1.6,1.6C133.4,241.2,134.2,240.5,134.2,239.6 M128.5,238.9
		c-0.9,0-1.6,0.7-1.6,1.6c0,0.9,0.7,1.6,1.6,1.6c0.9,0,1.6-0.7,1.6-1.6C130.1,239.7,129.4,238.9,128.5,238.9 M141.2,239.7
		c-0.9,0-1.6,0.7-1.6,1.6c0,0.9,0.7,1.6,1.6,1.6c0.9,0,1.6-0.7,1.6-1.6C142.8,240.4,142.1,239.7,141.2,239.7 M146.7,245.2
		c-0.9,0-1.6,0.7-1.6,1.6c0,0.9,0.7,1.6,1.6,1.6c0.9,0,1.6-0.7,1.6-1.6C148.4,246,147.6,245.2,146.7,245.2 M150.9,249.4
		c-0.9,0-1.6,0.7-1.6,1.6c0,0.9,0.7,1.6,1.6,1.6c0.9,0,1.6-0.7,1.6-1.6C152.6,250.2,151.8,249.4,150.9,249.4 M154.6,243.3
		c0,0.9,0.7,1.6,1.6,1.6c0.9,0,1.6-0.7,1.6-1.6c0-0.9-0.7-1.6-1.6-1.6C155.3,241.7,154.6,242.4,154.6,243.3 M152.6,266.7
		c0,0.9,0.7,1.6,1.6,1.6c0.9,0,1.6-0.7,1.6-1.6c0-0.9-0.7-1.6-1.6-1.6C153.3,265.1,152.6,265.8,152.6,266.7 M151.9,255.7
		c0,0.9,0.7,1.6,1.6,1.6c0.9,0,1.6-0.7,1.6-1.6c0-0.9-0.7-1.6-1.6-1.6C152.6,254,151.9,254.7,151.9,255.7 M153.5,260.1
		c0,0.9,0.7,1.6,1.6,1.6c0.9,0,1.6-0.7,1.6-1.6c0-0.9-0.7-1.6-1.6-1.6C154.3,258.5,153.5,259.2,153.5,260.1 M158.7,262.7
		c-0.9,0-1.6,0.7-1.6,1.6c0,0.9,0.7,1.6,1.6,1.6c0.9,0,1.6-0.7,1.6-1.6C160.4,263.4,159.6,262.7,158.7,262.7 M160,267.5
		c0,0.9,0.7,1.6,1.6,1.6c0.9,0,1.6-0.7,1.6-1.6c0-0.9-0.7-1.6-1.6-1.6C160.7,265.9,160,266.6,160,267.5 M164.5,271.1
		c0,0.9,0.7,1.6,1.6,1.6c0.9,0,1.6-0.7,1.6-1.6c0-0.9-0.7-1.6-1.6-1.6C165.2,269.5,164.5,270.2,164.5,271.1 M169.7,273.4
		c-0.9,0-1.6,0.7-1.6,1.6c0,0.9,0.7,1.6,1.6,1.6c0.9,0,1.6-0.7,1.6-1.6C171.4,274.1,170.7,273.4,169.7,273.4 M171,278.9
		c0,0.9,0.7,1.6,1.6,1.6c0.9,0,1.6-0.7,1.6-1.6s-0.7-1.6-1.6-1.6S171,278,171,278.9 M176.5,283.4c0-0.9-0.7-1.6-1.6-1.6
		c-0.9,0-1.6,0.7-1.6,1.6c0,0.9,0.7,1.6,1.6,1.6C175.8,285.1,176.5,284.3,176.5,283.4 M177.9,288.4c0.9,0,1.6-0.7,1.6-1.6
		c0-0.9-0.7-1.6-1.6-1.6c-0.9,0-1.6,0.7-1.6,1.6C176.3,287.7,177,288.4,177.9,288.4 M183.3,287.3c0-0.9-0.7-1.6-1.6-1.6
		c-0.9,0-1.6,0.7-1.6,1.6c0,0.9,0.7,1.6,1.6,1.6C182.6,288.9,183.3,288.2,183.3,287.3 M186.6,274c0-0.9-0.7-1.6-1.6-1.6
		c-0.9,0-1.6,0.7-1.6,1.6c0,0.9,0.7,1.6,1.6,1.6C185.9,275.7,186.6,274.9,186.6,274 M181.7,282.4c0-0.9-0.7-1.6-1.6-1.6
		c-0.9,0-1.6,0.7-1.6,1.6c0,0.9,0.7,1.6,1.6,1.6C181,284.1,181.7,283.4,181.7,282.4 M176.2,279.2c0,0.9,0.7,1.6,1.6,1.6
		c0.9,0,1.6-0.7,1.6-1.6c0-0.9-0.7-1.6-1.6-1.6C176.9,277.6,176.2,278.3,176.2,279.2 M182,276.6c-0.9,0-1.6,0.7-1.6,1.6
		c0,0.9,0.7,1.6,1.6,1.6s1.6-0.7,1.6-1.6C183.7,277.3,182.9,276.6,182,276.6 M175.5,273.4c-0.9,0-1.6,0.7-1.6,1.6
		c0,0.9,0.7,1.6,1.6,1.6c0.9,0,1.6-0.7,1.6-1.6C177.2,274.1,176.5,273.4,175.5,273.4 M170,270.5c0,0.9,0.7,1.6,1.6,1.6
		c0.9,0,1.6-0.7,1.6-1.6c0-0.9-0.7-1.6-1.6-1.6C170.8,268.8,170,269.6,170,270.5 M181.1,273.1c0-0.9-0.7-1.6-1.6-1.6
		c-0.9,0-1.6,0.7-1.6,1.6c0,0.9,0.7,1.6,1.6,1.6C180.3,274.7,181.1,274,181.1,273.1 M178.8,266.9c-0.9,0-1.6,0.7-1.6,1.6
		c0,0.9,0.7,1.6,1.6,1.6s1.6-0.7,1.6-1.6C180.4,267.6,179.7,266.9,178.8,266.9 M165.8,266.9c0,0.9,0.7,1.6,1.6,1.6s1.6-0.7,1.6-1.6
		c0-0.9-0.7-1.6-1.6-1.6S165.8,266,165.8,266.9 M174.6,264.9c-0.9,0-1.6,0.7-1.6,1.6c0,0.9,0.7,1.6,1.6,1.6c0.9,0,1.6-0.7,1.6-1.6
		C176.2,265.7,175.5,264.9,174.6,264.9 M170.7,261.7c-0.9,0-1.6,0.7-1.6,1.6c0,0.9,0.7,1.6,1.6,1.6c0.9,0,1.6-0.7,1.6-1.6
		C172.3,262.4,171.6,261.7,170.7,261.7 M163.6,261.7c-0.9,0-1.6,0.7-1.6,1.6c0,0.9,0.7,1.6,1.6,1.6c0.9,0,1.6-0.7,1.6-1.6
		C165.2,262.4,164.5,261.7,163.6,261.7 M172.6,260.1c0,0.9,0.7,1.6,1.6,1.6s1.6-0.7,1.6-1.6c0-0.9-0.7-1.6-1.6-1.6
		S172.6,259.2,172.6,260.1 M159.4,258.5c-0.9,0-1.6,0.7-1.6,1.6c0,0.9,0.7,1.6,1.6,1.6c0.9,0,1.6-0.7,1.6-1.6
		C161,259.2,160.3,258.5,159.4,258.5 M164.2,259.8c0,0.9,0.7,1.6,1.6,1.6c0.9,0,1.6-0.7,1.6-1.6c0-0.9-0.7-1.6-1.6-1.6
		C164.9,258.1,164.2,258.9,164.2,259.8 M159.4,255.6c0-0.9-0.7-1.6-1.6-1.6c-0.9,0-1.6,0.7-1.6,1.6c0,0.9,0.7,1.6,1.6,1.6
		C158.6,257.2,159.4,256.5,159.4,255.6 M178.1,257.8c-0.9,0-1.6,0.7-1.6,1.6c0,0.9,0.7,1.6,1.6,1.6c0.9,0,1.6-0.7,1.6-1.6
		C179.8,258.6,179,257.8,178.1,257.8 M182,260.7c-0.9,0-1.6,0.7-1.6,1.6c0,0.9,0.7,1.6,1.6,1.6c0.9,0,1.6-0.7,1.6-1.6
		C183.7,261.5,182.9,260.7,182,260.7 M175.1,255.9c0.9,0,1.6-0.7,1.6-1.6c0-0.9-0.7-1.6-1.6-1.6c-0.9,0-1.6,0.7-1.6,1.6
		C173.5,255.2,174.2,255.9,175.1,255.9 M171.3,256.5c0-0.9-0.7-1.6-1.6-1.6c-0.9,0-1.6,0.7-1.6,1.6c0,0.9,0.7,1.6,1.6,1.6
		S171.3,257.4,171.3,256.5 M160.9,254.3c0,0.9,0.7,1.6,1.6,1.6c0.9,0,1.6-0.7,1.6-1.6c0-0.9-0.7-1.6-1.6-1.6
		S160.9,253.4,160.9,254.3 M154.2,251.4c0,0.9,0.7,1.6,1.6,1.6c0.9,0,1.6-0.7,1.6-1.6c0-0.9-0.7-1.6-1.6-1.6
		C154.9,249.7,154.2,250.5,154.2,251.4 M156.7,246.8c0,0.9,0.7,1.6,1.6,1.6c0.9,0,1.6-0.7,1.6-1.6c0-0.9-0.7-1.6-1.6-1.6
		C157.5,245.2,156.7,245.9,156.7,246.8 M161.3,241.3c-0.9,0-1.6,0.7-1.6,1.6c0,0.9,0.7,1.6,1.6,1.6c0.9,0,1.6-0.7,1.6-1.6
		C163,242,162.2,241.3,161.3,241.3 M164.2,236.1c-0.9,0-1.6,0.7-1.6,1.6c0,0.9,0.7,1.6,1.6,1.6c0.9,0,1.6-0.7,1.6-1.6
		C165.9,236.8,165.2,236.1,164.2,236.1 M142.5,249.4c-0.9,0-1.6,0.7-1.6,1.6c0,0.9,0.7,1.6,1.6,1.6s1.6-0.7,1.6-1.6
		C144.2,250.2,143.4,249.4,142.5,249.4 M137.2,250.1c0,0.9,0.7,1.6,1.6,1.6c0.9,0,1.6-0.7,1.6-1.6c0-0.9-0.7-1.6-1.6-1.6
		C137.9,248.5,137.2,249.2,137.2,250.1 M141.1,247.1c0,0.9,0.7,1.6,1.6,1.6c0.9,0,1.6-0.7,1.6-1.6c0-0.9-0.7-1.6-1.6-1.6
		C141.8,245.5,141.1,246.2,141.1,247.1 M137.1,239.5c-0.9,0-1.6,0.7-1.6,1.6c0,0.9,0.7,1.6,1.6,1.6c0.9,0,1.6-0.7,1.6-1.6
		C138.8,240.2,138,239.5,137.1,239.5 M146.2,237.6c0,0.9,0.7,1.6,1.6,1.6c0.9,0,1.6-0.7,1.6-1.6c0-0.9-0.7-1.6-1.6-1.6
		C146.9,235.9,146.2,236.7,146.2,237.6 M159.8,239.6c0-0.9-0.7-1.6-1.6-1.6c-0.9,0-1.6,0.7-1.6,1.6c0,0.9,0.7,1.6,1.6,1.6
		C159.1,241.2,159.8,240.5,159.8,239.6 M152.8,233.1c0,0.9,0.7,1.6,1.6,1.6c0.9,0,1.6-0.7,1.6-1.6c0-0.9-0.7-1.6-1.6-1.6
		C153.5,231.4,152.8,232.2,152.8,233.1 M143.4,232.9c0,0.1,0,0.2,0,0.3c0.1,0.8,0.8,1.4,1.6,1.4c0.1,0,0.2,0,0.2,0l0-0.4l0.1,0.4
		c0.8-0.1,1.4-0.8,1.4-1.6c0-0.1,0-0.2,0-0.2c-0.1-0.8-0.8-1.4-1.6-1.4c-0.1,0-0.2,0-0.3,0C144,231.4,143.4,232.1,143.4,232.9
		 M137.3,225c-0.9,0-1.6,0.7-1.6,1.6c0,0.9,0.7,1.6,1.6,1.6c0.9,0,1.6-0.7,1.6-1.6C138.9,225.8,138.2,225,137.3,225 M124.4,224.2
		c0,0.9,0.7,1.6,1.6,1.6c0.9,0,1.6-0.7,1.6-1.6c0-0.9-0.7-1.6-1.6-1.6C125.2,222.5,124.4,223.3,124.4,224.2 M119.8,223.5
		c0,0.9,0.7,1.6,1.6,1.6c0.9,0,1.6-0.7,1.6-1.6c0-0.9-0.7-1.6-1.6-1.6C120.5,221.9,119.8,222.6,119.8,223.5 M112.7,224.5
		c0.9,0,1.6-0.7,1.6-1.6c0-0.9-0.7-1.6-1.6-1.6c-0.9,0-1.6,0.7-1.6,1.6C111.1,223.7,111.8,224.5,112.7,224.5 M113.1,220.7
		c0.9,0,1.6-0.7,1.6-1.6c0-0.9-0.7-1.6-1.6-1.6c-0.9,0-1.6,0.7-1.6,1.6C111.4,219.9,112.2,220.7,113.1,220.7 M119.7,219
		c0.9,0,1.6-0.7,1.6-1.6c0-0.9-0.7-1.6-1.6-1.6c-0.9,0-1.6,0.7-1.6,1.6C118.1,218.3,118.8,219,119.7,219 M125.9,218.5
		c0.9,0,1.6-0.7,1.6-1.6c0-0.9-0.7-1.6-1.6-1.6c-0.9,0-1.6,0.7-1.6,1.6C124.2,217.8,125,218.5,125.9,218.5 M128.2,219.2
		c-0.9,0-1.6,0.7-1.6,1.6c0,0.9,0.7,1.6,1.6,1.6c0.9,0,1.6-0.7,1.6-1.6C129.8,219.9,129.1,219.2,128.2,219.2 M130.7,218.5
		c0.9,0,1.6-0.7,1.6-1.6c0-0.9-0.7-1.6-1.6-1.6c-0.9,0-1.6,0.7-1.6,1.6C129.1,217.8,129.8,218.5,130.7,218.5 M133.2,219.4
		c-0.9,0-1.6,0.7-1.6,1.6c0,0.9,0.7,1.6,1.6,1.6c0.9,0,1.6-0.7,1.6-1.6C134.9,220.1,134.1,219.4,133.2,219.4 M133.9,217.2
		c0,0.9,0.7,1.6,1.6,1.6c0.9,0,1.6-0.7,1.6-1.6c0-0.9-0.7-1.6-1.6-1.6C134.7,215.6,133.9,216.3,133.9,217.2 M136.3,222.1
		c0,0.9,0.7,1.6,1.6,1.6s1.6-0.7,1.6-1.6c0-0.9-0.7-1.6-1.6-1.6S136.3,221.2,136.3,222.1 M140.4,219.2c0,0.9,0.7,1.6,1.6,1.6
		s1.6-0.7,1.6-1.6c0-0.9-0.7-1.6-1.6-1.6C141.2,217.6,140.4,218.3,140.4,219.2 M146.2,220.8c-0.9,0-1.6,0.7-1.6,1.6
		c0,0.9,0.7,1.6,1.6,1.6c0.9,0,1.6-0.7,1.6-1.6C147.8,221.5,147.1,220.8,146.2,220.8 M148.7,220.8c0.9,0,1.6-0.7,1.6-1.6
		c0-0.9-0.7-1.6-1.6-1.6c-0.9,0-1.6,0.7-1.6,1.6C147.1,220.1,147.8,220.8,148.7,220.8 M147.5,225.5c-0.9,0-1.6,0.7-1.6,1.6
		c0,0.9,0.7,1.6,1.6,1.6c0.9,0,1.6-0.7,1.6-1.6C149.1,226.2,148.4,225.5,147.5,225.5 M150.3,221.5c-0.9,0-1.6,0.7-1.6,1.6
		c0,0.9,0.7,1.6,1.6,1.6c0.9,0,1.6-0.7,1.6-1.6C152,222.3,151.3,221.5,150.3,221.5 M155.7,223.9c0.9,0,1.6-0.7,1.6-1.6
		c0-0.9-0.7-1.6-1.6-1.6c-0.9,0-1.6,0.7-1.6,1.6C154.1,223.2,154.8,223.9,155.7,223.9 M154.1,224.9c-0.9,0-1.6,0.7-1.6,1.6
		c0,0.9,0.7,1.6,1.6,1.6c0.9,0,1.6-0.7,1.6-1.6C155.8,225.7,155,224.9,154.1,224.9 M160.8,222.5c0.9,0,1.6-0.7,1.6-1.6
		c0-0.9-0.7-1.6-1.6-1.6c-0.9,0-1.6,0.7-1.6,1.6C159.1,221.7,159.9,222.5,160.8,222.5 M161,223.3c-0.9,0-1.6,0.7-1.6,1.6
		c0,0.9,0.7,1.6,1.6,1.6c0.9,0,1.6-0.7,1.6-1.6C162.6,224.1,161.9,223.3,161,223.3 M166.2,222.2c-0.9,0-1.6,0.7-1.6,1.6
		c0,0.9,0.7,1.6,1.6,1.6c0.9,0,1.6-0.7,1.6-1.6C167.8,223,167.1,222.2,166.2,222.2 M157.9,227.5c-0.9,0-1.6,0.7-1.6,1.6
		c0,0.9,0.7,1.6,1.6,1.6c0.9,0,1.6-0.7,1.6-1.6C159.5,228.2,158.8,227.5,157.9,227.5 M164.9,229.7c0.9,0,1.6-0.7,1.6-1.6
		c0-0.9-0.7-1.6-1.6-1.6c-0.9,0-1.6,0.7-1.6,1.6C163.3,228.9,164,229.7,164.9,229.7 M169.8,228.2c0.9,0,1.6-0.7,1.6-1.6
		c0-0.9-0.7-1.6-1.6-1.6c-0.9,0-1.6,0.7-1.6,1.6C168.1,227.5,168.9,228.2,169.8,228.2 M172.3,225.3c0,0.9,0.7,1.6,1.6,1.6
		c0.9,0,1.6-0.7,1.6-1.6c0-0.9-0.7-1.6-1.6-1.6C173,223.7,172.3,224.4,172.3,225.3 M169.4,229.4c-0.9,0-1.6,0.7-1.6,1.6
		c0,0.9,0.7,1.6,1.6,1.6c0.9,0,1.6-0.7,1.6-1.6C171.1,230.2,170.3,229.4,169.4,229.4 M172.8,230.5c0,0.9,0.7,1.6,1.6,1.6
		c0.9,0,1.6-0.7,1.6-1.6c0-0.9-0.7-1.6-1.6-1.6S172.8,229.6,172.8,230.5 M177.3,236.1c0.9,0,1.6-0.7,1.6-1.6c0-0.9-0.7-1.6-1.6-1.6
		c-0.9,0-1.6,0.7-1.6,1.6C175.7,235.4,176.4,236.1,177.3,236.1 M171.4,233.4c-0.9,0-1.6,0.7-1.6,1.6c0,0.9,0.7,1.6,1.6,1.6
		c0.9,0,1.6-0.7,1.6-1.6C173,234.1,172.3,233.4,171.4,233.4 M175.2,236.3c-0.9,0-1.6,0.7-1.6,1.6c0,0.9,0.7,1.6,1.6,1.6
		c0.9,0,1.6-0.7,1.6-1.6C176.8,237,176.1,236.3,175.2,236.3 M172.8,241.9c0,0.9,0.7,1.6,1.6,1.6c0.9,0,1.6-0.7,1.6-1.6
		c0-0.9-0.7-1.6-1.6-1.6C173.6,240.2,172.8,241,172.8,241.9 M182.4,242.1c0,0.9,0.7,1.6,1.6,1.6c0.9,0,1.6-0.7,1.6-1.6
		c0-0.9-0.7-1.6-1.6-1.6C183.1,240.4,182.4,241.2,182.4,242.1 M181.5,250.7c-0.9,0-1.6,0.7-1.6,1.6c0,0.9,0.7,1.6,1.6,1.6
		c0.9,0,1.6-0.7,1.6-1.6C183.1,251.4,182.4,250.7,181.5,250.7 M187.4,254.8c0-0.9-0.7-1.6-1.6-1.6c-0.9,0-1.6,0.7-1.6,1.6
		c0,0.9,0.7,1.6,1.6,1.6C186.7,256.5,187.4,255.7,187.4,254.8 M178.3,241.3c-0.9,0-1.6,0.7-1.6,1.6c0,0.9,0.7,1.6,1.6,1.6
		c0.9,0,1.6-0.7,1.6-1.6C179.9,242.1,179.2,241.3,178.3,241.3 M175.2,244.6c-0.9,0-1.6,0.7-1.6,1.6c0,0.9,0.7,1.6,1.6,1.6
		c0.9,0,1.6-0.7,1.6-1.6C176.8,245.3,176.1,244.6,175.2,244.6 M177.5,247.8c-0.9,0-1.6,0.7-1.6,1.6c0,0.9,0.7,1.6,1.6,1.6
		c0.9,0,1.6-0.7,1.6-1.6C179.2,248.5,178.4,247.8,177.5,247.8 M179.1,232c0.9,0,1.6-0.7,1.6-1.6c0-0.9-0.7-1.6-1.6-1.6
		c-0.9,0-1.6,0.7-1.6,1.6C177.5,231.3,178.2,232,179.1,232 M163.8,234.5c0.9,0,1.6-0.7,1.6-1.6c0-0.9-0.7-1.6-1.6-1.6
		c-0.9,0-1.6,0.7-1.6,1.6C162.2,233.8,162.9,234.5,163.8,234.5 M166.3,240.1c0,0.9,0.7,1.6,1.6,1.6c0.9,0,1.6-0.7,1.6-1.6
		c0-0.9-0.7-1.6-1.6-1.6C167.1,238.4,166.3,239.2,166.3,240.1 M164.7,243.7c0,0.9,0.7,1.6,1.6,1.6c0.9,0,1.6-0.7,1.6-1.6
		c0-0.9-0.7-1.6-1.6-1.6C165.5,242,164.7,242.8,164.7,243.7 M163.1,245.8c-0.9,0-1.6,0.7-1.6,1.6c0,0.9,0.7,1.6,1.6,1.6
		c0.9,0,1.6-0.7,1.6-1.6C164.8,246.6,164,245.8,163.1,245.8 M164.9,251.1c0,0.9,0.7,1.6,1.6,1.6c0.9,0,1.6-0.7,1.6-1.6
		c0-0.9-0.7-1.6-1.6-1.6C165.6,249.4,164.9,250.2,164.9,251.1 M167.6,248.4c0,0.9,0.7,1.6,1.6,1.6c0.9,0,1.6-0.7,1.6-1.6
		c0-0.9-0.7-1.6-1.6-1.6C168.3,246.7,167.6,247.5,167.6,248.4 M170.7,242.9c-0.9,0-1.6,0.7-1.6,1.6c0,0.9,0.7,1.6,1.6,1.6
		s1.6-0.7,1.6-1.6C172.3,243.7,171.6,242.9,170.7,242.9 M123.5,218.6c-0.9,0-1.6,0.7-1.6,1.6c0,0.9,0.7,1.6,1.6,1.6
		c0.9,0,1.6-0.7,1.6-1.6C125.2,219.4,124.4,218.6,123.5,218.6 M107.3,219.2c0,0.9,0.7,1.6,1.6,1.6c0.9,0,1.6-0.7,1.6-1.6
		c0-0.9-0.7-1.6-1.6-1.6C108,217.6,107.3,218.3,107.3,219.2 M92.5,225.7c0.9,0,1.6-0.7,1.6-1.6c0-0.9-0.7-1.6-1.6-1.6
		c-0.9,0-1.6,0.7-1.6,1.6C90.8,225,91.6,225.7,92.5,225.7 M81.5,226.3c0.9,0,1.6-0.7,1.6-1.6c0-0.9-0.7-1.6-1.6-1.6
		c-0.9,0-1.6,0.7-1.6,1.6C79.9,225.6,80.6,226.3,81.5,226.3 M55.7,244.5c0.9,0,1.6-0.7,1.6-1.6c0-0.9-0.7-1.6-1.6-1.6
		s-1.6,0.7-1.6,1.6C54,243.8,54.8,244.5,55.7,244.5 M147.1,249.8c-0.9,0-1.6,0.7-1.6,1.6c0,0.9,0.7,1.6,1.6,1.6
		c0.9,0,1.6-0.7,1.6-1.6C148.8,250.5,148.1,249.8,147.1,249.8 M148.1,254.7c-0.9,0-1.6,0.7-1.6,1.6c0,0.9,0.7,1.6,1.6,1.6
		c0.9,0,1.6-0.7,1.6-1.6C149.8,255.4,149,254.7,148.1,254.7 M149.8,246.1c0,0.9,0.7,1.6,1.6,1.6s1.6-0.7,1.6-1.6
		c0-0.9-0.7-1.6-1.6-1.6C150.6,244.4,149.8,245.2,149.8,246.1 M143.6,243.1c0,0.9,0.7,1.6,1.6,1.6c0.9,0,1.6-0.7,1.6-1.6
		c0-0.9-0.7-1.6-1.6-1.6S143.7,242.2,143.6,243.1 M150.6,257.8c-0.9,0-1.6,0.7-1.6,1.6c0,0.9,0.7,1.6,1.6,1.6s1.6-0.7,1.6-1.6
		C152.2,258.6,151.5,257.8,150.6,257.8 M131,225.4c0,0.9,0.7,1.6,1.6,1.6c0.9,0,1.6-0.7,1.6-1.6c0-0.9-0.7-1.6-1.6-1.6
		C131.7,223.8,131,224.5,131,225.4 M133.2,228.7c-0.9,0-1.6,0.7-1.6,1.6c0,0.9,0.7,1.6,1.6,1.6c0.9,0,1.6-0.7,1.6-1.6
		C134.9,229.4,134.1,228.7,133.2,228.7 M142,237.3c0,0.1,0,0.2,0,0.3h0c0.1,0.8,0.8,1.4,1.6,1.4c0.1,0,0.2,0,0.2,0
		c0.8-0.1,1.4-0.8,1.4-1.6c0-0.1,0-0.2,0-0.2c-0.1-0.8-0.8-1.4-1.6-1.4c-0.1,0-0.2,0-0.3,0C142.5,235.9,141.9,236.5,142,237.3
		 M140.8,230.8c-0.9,0-1.6,0.7-1.6,1.6c0,0.9,0.7,1.6,1.6,1.6c0.9,0,1.6-0.7,1.6-1.6C142.4,231.5,141.7,230.8,140.8,230.8
		 M142.2,226.6c-0.9,0-1.6,0.7-1.6,1.6c0,0.9,0.7,1.6,1.6,1.6c0.9,0,1.6-0.7,1.6-1.6C143.9,227.3,143.1,226.6,142.2,226.6
		 M151.9,231.2c0-0.9-0.7-1.6-1.6-1.6c-0.9,0-1.6,0.7-1.6,1.6c0,0.9,0.7,1.6,1.6,1.6C151.2,232.9,151.9,232.1,151.9,231.2
		 M154,240.5c0.9,0,1.6-0.7,1.6-1.6c0-0.9-0.7-1.6-1.6-1.6c-0.9,0-1.6,0.7-1.6,1.6C152.4,239.7,153.1,240.5,154,240.5 M159.5,234.1
		c-0.9,0-1.6,0.7-1.6,1.6c0,0.9,0.7,1.6,1.6,1.6c0.9,0,1.6-0.7,1.6-1.6C161.1,234.8,160.4,234.1,159.5,234.1 M186.9,232.1
		c0.9,0,1.6-0.7,1.6-1.6c0-0.9-0.7-1.6-1.6-1.6c-0.9,0-1.6,0.7-1.6,1.6C185.3,231.3,186,232.1,186.9,232.1 M181.2,228
		c0.9,0,1.6-0.7,1.6-1.6c0-0.9-0.7-1.6-1.6-1.6c-0.9,0-1.6,0.7-1.6,1.6C179.6,227.2,180.3,228,181.2,228 M171.7,223.4
		c0.9,0,1.6-0.7,1.6-1.6c0-0.9-0.7-1.6-1.6-1.6c-0.9,0-1.6,0.7-1.6,1.6C170.1,222.7,170.8,223.4,171.7,223.4 M165.7,221
		c0.9,0,1.6-0.7,1.6-1.6c0-0.9-0.7-1.6-1.6-1.6c-0.9,0-1.6,0.7-1.6,1.6C164.1,220.3,164.8,221,165.7,221 M157.4,218.5
		c0.9,0,1.6-0.7,1.6-1.6c0-0.9-0.7-1.6-1.6-1.6c-0.9,0-1.6,0.7-1.6,1.6C155.8,217.8,156.5,218.5,157.4,218.5 M151.8,217.2
		c0.9,0,1.6-0.7,1.6-1.6c0-0.9-0.7-1.6-1.6-1.6c-0.9,0-1.6,0.7-1.6,1.6C150.2,216.4,150.9,217.2,151.8,217.2 M145.5,216
		c0.9,0,1.6-0.7,1.6-1.6c0-0.9-0.7-1.6-1.6-1.6c-0.9,0-1.6,0.7-1.6,1.6C143.9,215.3,144.6,216,145.5,216 M139.8,215.3
		c0.9,0,1.6-0.7,1.6-1.6c0-0.9-0.7-1.6-1.6-1.6c-0.9,0-1.6,0.7-1.6,1.6C138.1,214.6,138.8,215.3,139.8,215.3 M133.4,215
		c0.9,0,1.6-0.7,1.6-1.6c0-0.9-0.7-1.6-1.6-1.6c-0.9,0-1.6,0.7-1.6,1.6C131.8,214.2,132.5,215,133.4,215 M127.1,214.9
		c0.9,0,1.6-0.7,1.6-1.6c0-0.9-0.7-1.6-1.6-1.6c-0.9,0-1.6,0.7-1.6,1.6C125.4,214.2,126.2,214.9,127.1,214.9 M122,215.2
		c0.9,0,1.6-0.7,1.6-1.6c0-0.9-0.7-1.6-1.6-1.6c-0.9,0-1.6,0.7-1.6,1.6C120.4,214.4,121.1,215.2,122,215.2 M114.6,216
		c0.9,0,1.6-0.7,1.6-1.6c0-0.9-0.7-1.6-1.6-1.6c-0.9,0-1.6,0.7-1.6,1.6C113,215.2,113.7,216,114.6,216 M107.3,217.2
		c0.9,0,1.6-0.7,1.6-1.6c0-0.9-0.7-1.6-1.6-1.6c-0.9,0-1.6,0.7-1.6,1.6C105.7,216.5,106.4,217.2,107.3,217.2 M194.1,233
		c-0.9,0-1.6,0.7-1.6,1.6c0,0.9,0.7,1.6,1.6,1.6c0.9,0,1.6-0.7,1.6-1.6C195.8,233.7,195,233,194.1,233 M203.6,240.9
		c-0.9,0-1.6,0.7-1.6,1.6c0,0.9,0.7,1.6,1.6,1.6c0.9,0,1.6-0.7,1.6-1.6C205.2,241.6,204.5,240.9,203.6,240.9 M105.5,242.4
		c0,0.9,0.7,1.6,1.6,1.6c0.9,0,1.6-0.7,1.6-1.6c0-0.9-0.7-1.6-1.6-1.6C106.2,240.7,105.5,241.4,105.5,242.4 M110.9,246.3
		c0,0.9,0.7,1.6,1.6,1.6c0.9,0,1.6-0.7,1.6-1.6c0-0.9-0.7-1.6-1.6-1.6C111.6,244.6,110.9,245.4,110.9,246.3 M115.9,249.1
		c0,0.9,0.7,1.6,1.6,1.6c0.9,0,1.6-0.7,1.6-1.6c0-0.9-0.7-1.6-1.6-1.6C116.7,247.5,115.9,248.2,115.9,249.1 M115.4,253.1
		c0,0.9,0.7,1.6,1.6,1.6c0.9,0,1.6-0.7,1.6-1.6c0-0.9-0.7-1.6-1.6-1.6C116.2,251.5,115.4,252.2,115.4,253.1 M107.5,248.7
		c0.9,0,1.6-0.7,1.6-1.6s-0.7-1.6-1.6-1.6c-0.9,0-1.6,0.7-1.6,1.6C105.9,248,106.6,248.7,107.5,248.7 M112.8,248.3
		c-0.9,0-1.6,0.7-1.6,1.6c0,0.9,0.7,1.6,1.6,1.6c0.9,0,1.6-0.7,1.6-1.6C114.4,249,113.7,248.3,112.8,248.3 M81.2,247
		c0.9,0,1.6-0.7,1.6-1.6c0-0.9-0.7-1.6-1.6-1.6c-0.9,0-1.6,0.7-1.6,1.6C79.6,246.2,80.3,247,81.2,247 M80.7,251.6
		c0.9,0,1.6-0.7,1.6-1.6c0-0.9-0.7-1.6-1.6-1.6c-0.9,0-1.6,0.7-1.6,1.6C79.1,250.9,79.8,251.6,80.7,251.6 M86.5,240.8
		c0.9,0,1.6-0.7,1.6-1.6c0-0.9-0.7-1.6-1.6-1.6c-0.9,0-1.6,0.7-1.6,1.6C84.8,240.1,85.5,240.8,86.5,240.8 M93.4,233.9
		c-0.9,0-1.6,0.7-1.6,1.6c0,0.9,0.7,1.6,1.6,1.6c0.9,0,1.6-0.7,1.6-1.6C95,234.7,94.3,233.9,93.4,233.9 M96.8,229.9
		c-0.9,0-1.6,0.7-1.6,1.6c0,0.9,0.7,1.6,1.6,1.6c0.9,0,1.6-0.7,1.6-1.6C98.5,230.6,97.7,229.9,96.8,229.9 M92.3,229.1
		c-0.9,0-1.6,0.7-1.6,1.6c0,0.9,0.7,1.6,1.6,1.6c0.9,0,1.6-0.7,1.6-1.6C93.9,229.9,93.2,229.1,92.3,229.1 M81.7,253.7
		c0,0.9,0.7,1.6,1.6,1.6c0.9,0,1.6-0.7,1.6-1.6c0-0.9-0.7-1.6-1.6-1.6C82.4,252.1,81.7,252.8,81.7,253.7 M104.7,259
		c0,0.9,0.7,1.6,1.6,1.6c0.9,0,1.6-0.7,1.6-1.6c0-0.9-0.7-1.6-1.6-1.6C105.4,257.4,104.7,258.1,104.7,259 M109.7,261.6
		c0,0.9,0.7,1.6,1.6,1.6c0.9,0,1.6-0.7,1.6-1.6c0-0.9-0.7-1.6-1.6-1.6C110.4,260,109.7,260.7,109.7,261.6 M118.2,262.1
		c-0.9,0-1.6,0.7-1.6,1.6c0,0.9,0.7,1.6,1.6,1.6c0.9,0,1.6-0.7,1.6-1.6C119.8,262.8,119.1,262.1,118.2,262.1 M128.8,261.8
		c-0.9,0-1.6,0.7-1.6,1.6c0,0.9,0.7,1.6,1.6,1.6c0.9,0,1.6-0.7,1.6-1.6C130.5,262.5,129.7,261.8,128.8,261.8 M132.7,265.2
		c0,0.9,0.7,1.6,1.6,1.6s1.6-0.7,1.6-1.6c0-0.9-0.7-1.6-1.6-1.6C133.4,263.5,132.7,264.3,132.7,265.2 M144.3,267
		c0,0.9,0.7,1.6,1.6,1.6c0.9,0,1.6-0.7,1.6-1.6c0-0.9-0.7-1.6-1.6-1.6C145.1,265.4,144.3,266.1,144.3,267 M151.1,273
		c-0.9,0-1.6,0.7-1.6,1.6c0,0.9,0.7,1.6,1.6,1.6c0.9,0,1.6-0.7,1.6-1.6C152.8,273.8,152,273,151.1,273 M152.5,315.3
		c0-0.9-0.7-1.6-1.6-1.6c-0.9,0-1.6,0.7-1.6,1.6c0,0.9,0.7,1.6,1.6,1.6S152.4,316.2,152.5,315.3 M172.8,329.7c0-0.9-0.7-1.6-1.6-1.6
		c-0.9,0-1.6,0.7-1.6,1.6c0,0.9,0.7,1.6,1.6,1.6C172.1,331.3,172.8,330.6,172.8,329.7 M173.6,325.5c0.9,0,1.6-0.7,1.6-1.6
		c0-0.9-0.7-1.6-1.6-1.6s-1.6,0.7-1.6,1.6C172,324.8,172.7,325.5,173.6,325.5 M177.2,317.1c-0.9,0-1.6,0.7-1.6,1.6
		c0,0.9,0.7,1.6,1.6,1.6s1.6-0.7,1.6-1.6C178.8,317.8,178.1,317.1,177.2,317.1 M184.3,314.5c0-0.9-0.7-1.6-1.6-1.6
		c-0.9,0-1.6,0.7-1.6,1.6c0,0.9,0.7,1.6,1.6,1.6C183.6,316.1,184.3,315.4,184.3,314.5 M185.6,307.4c-0.9,0-1.6,0.7-1.6,1.6
		c0,0.9,0.7,1.6,1.6,1.6c0.9,0,1.6-0.7,1.6-1.6C187.2,308.1,186.5,307.4,185.6,307.4 M186.9,301.8c-0.9,0-1.6,0.7-1.6,1.6
		c0,0.9,0.7,1.6,1.6,1.6c0.9,0,1.6-0.7,1.6-1.6C188.6,302.6,187.8,301.8,186.9,301.8 M187.2,299.6c0.9,0,1.6-0.7,1.6-1.6
		c0-0.9-0.7-1.6-1.6-1.6c-0.9,0-1.6,0.7-1.6,1.6C185.6,298.9,186.3,299.6,187.2,299.6 M182.3,297.9c-0.9,0-1.6,0.7-1.6,1.6
		c0,0.9,0.7,1.6,1.6,1.6s1.6-0.7,1.6-1.6C184,298.7,183.3,297.9,182.3,297.9 M180.1,299.9c0-0.9-0.7-1.6-1.6-1.6
		c-0.9,0-1.6,0.7-1.6,1.6c0,0.9,0.7,1.6,1.6,1.6C179.4,301.6,180.1,300.8,180.1,299.9 M175.9,294.8c0-0.9-0.7-1.6-1.6-1.6
		s-1.6,0.7-1.6,1.6c0,0.9,0.7,1.6,1.6,1.6S175.9,295.7,175.9,294.8 M168.7,289.9c0,0.9,0.7,1.6,1.6,1.6c0.9,0,1.6-0.7,1.6-1.6
		c0-0.9-0.7-1.6-1.6-1.6C169.5,288.3,168.7,289,168.7,289.9 M166.5,288.9c0.9,0,1.6-0.7,1.6-1.6s-0.7-1.6-1.6-1.6
		c-0.9,0-1.6,0.7-1.6,1.6S165.6,288.9,166.5,288.9 M165.9,282.1c0-0.9-0.7-1.6-1.6-1.6s-1.6,0.7-1.6,1.6c0,0.9,0.7,1.6,1.6,1.6
		C165.1,283.8,165.9,283,165.9,282.1 M162.3,279.2c0-0.9-0.7-1.6-1.6-1.6c-0.9,0-1.6,0.7-1.6,1.6c0,0.9,0.7,1.6,1.6,1.6
		C161.6,280.9,162.3,280.1,162.3,279.2 M159.7,273.4c-0.9,0-1.6,0.7-1.6,1.6c0,0.9,0.7,1.6,1.6,1.6c0.9,0,1.6-0.7,1.6-1.6
		C161.3,274.1,160.6,273.4,159.7,273.4 M155.1,270.4c-0.9,0-1.6,0.7-1.6,1.6c0,0.9,0.7,1.6,1.6,1.6c0.9,0,1.6-0.7,1.6-1.6
		S156.1,270.4,155.1,270.4 M155.8,276.3c-0.9,0-1.6,0.7-1.6,1.6c0,0.9,0.7,1.6,1.6,1.6c0.9,0,1.6-0.7,1.6-1.6
		C157.4,277,156.7,276.3,155.8,276.3 M155.8,284.7c0-0.9-0.7-1.6-1.6-1.6c-0.9,0-1.6,0.7-1.6,1.6c0,0.9,0.7,1.6,1.6,1.6
		C155.1,286.4,155.8,285.6,155.8,284.7 M158,284.4c0,0.9,0.7,1.6,1.6,1.6s1.6-0.7,1.6-1.6c0-0.9-0.7-1.6-1.6-1.6
		S158,283.5,158,284.4 M151.3,288c0-0.9-0.7-1.6-1.6-1.6S148,287,148,288c0,0.9,0.7,1.6,1.6,1.6S151.3,288.9,151.3,288 M155.8,288.3
		c0,0.9,0.7,1.6,1.6,1.6c0.9,0,1.6-0.7,1.6-1.6c0-0.9-0.7-1.6-1.6-1.6C156.5,286.7,155.8,287.4,155.8,288.3 M152.9,288.9
		c-0.9,0-1.6,0.7-1.6,1.6c0,0.9,0.7,1.6,1.6,1.6c0.9,0,1.6-0.7,1.6-1.6C154.5,289.6,153.8,288.9,152.9,288.9 M161.9,287.9
		c-0.9,0-1.6,0.7-1.6,1.6c0,0.9,0.7,1.6,1.6,1.6c0.9,0,1.6-0.7,1.6-1.6C163.6,288.7,162.9,287.9,161.9,287.9 M157.1,294.5
		c0.9,0,1.6-0.7,1.6-1.6c0-0.9-0.7-1.6-1.6-1.6c-0.9,0-1.6,0.7-1.6,1.6C155.4,293.7,156.2,294.5,157.1,294.5 M167.5,292.2
		c0-0.9-0.7-1.6-1.6-1.6s-1.6,0.7-1.6,1.6c0,0.9,0.7,1.6,1.6,1.6S167.5,293.1,167.5,292.2 M163.6,294.8c0-0.9-0.7-1.6-1.6-1.6
		c-0.9,0-1.6,0.7-1.6,1.6c0,0.9,0.7,1.6,1.6,1.6C162.9,296.4,163.6,295.7,163.6,294.8 M157.8,299c0.9,0,1.6-0.7,1.6-1.6
		c0-0.9-0.7-1.6-1.6-1.6c-0.9,0-1.6,0.7-1.6,1.6C156.1,298.2,156.9,299,157.8,299 M169.1,297.7c0.9,0,1.6-0.7,1.6-1.6
		c0-0.9-0.7-1.6-1.6-1.6c-0.9,0-1.6,0.7-1.6,1.6C167.4,297,168.2,297.7,169.1,297.7 M166.5,298.3c0-0.9-0.7-1.6-1.6-1.6
		c-0.9,0-1.6,0.7-1.6,1.6c0,0.9,0.7,1.6,1.6,1.6C165.8,300,166.5,299.2,166.5,298.3 M159.7,303.2c0.9,0,1.6-0.7,1.6-1.6
		c0-0.9-0.7-1.6-1.6-1.6c-0.9,0-1.6,0.7-1.6,1.6C158.1,302.5,158.8,303.2,159.7,303.2 M160,307.1c0-0.9-0.7-1.6-1.6-1.6
		c-0.9,0-1.6,0.7-1.6,1.6c0,0.9,0.7,1.6,1.6,1.6C159.3,308.7,160,308,160,307.1 M174.6,299.3c0-0.9-0.7-1.6-1.6-1.6
		s-1.6,0.7-1.6,1.6c0,0.9,0.7,1.6,1.6,1.6S174.6,300.2,174.6,299.3 M156.4,309.9c-0.9,0-1.6,0.7-1.6,1.6c0,0.9,0.7,1.6,1.6,1.6
		s1.6-0.7,1.6-1.6C158.1,310.7,157.4,309.9,156.4,309.9 M164.6,304.5c0-0.9-0.7-1.6-1.6-1.6c-0.9,0-1.6,0.7-1.6,1.6
		c0,0.9,0.7,1.6,1.6,1.6C163.8,306.1,164.6,305.4,164.6,304.5 M183.7,303.8c0-0.9-0.7-1.6-1.6-1.6c-0.9,0-1.6,0.7-1.6,1.6
		c0,0.9,0.7,1.6,1.6,1.6C182.9,305.5,183.7,304.7,183.7,303.8 M177.5,304.1c0-0.9-0.7-1.6-1.6-1.6c-0.9,0-1.6,0.7-1.6,1.6
		c0,0.9,0.7,1.6,1.6,1.6C176.8,305.8,177.5,305,177.5,304.1 M170.4,303.9c0.9,0,1.6-0.7,1.6-1.6c0-0.9-0.7-1.6-1.6-1.6
		c-0.9,0-1.6,0.7-1.6,1.6C168.7,303.1,169.5,303.9,170.4,303.9 M167.8,307.4c0-0.9-0.7-1.6-1.6-1.6s-1.6,0.7-1.6,1.6
		c0,0.9,0.7,1.6,1.6,1.6C167.1,309,167.8,308.3,167.8,307.4 M161.6,311.9c0.9,0,1.6-0.7,1.6-1.6c0-0.9-0.7-1.6-1.6-1.6
		c-0.9,0-1.6,0.7-1.6,1.6C160,311.2,160.7,311.9,161.6,311.9 M156.4,314.5c-0.9,0-1.6,0.7-1.6,1.6c0,0.9,0.7,1.6,1.6,1.6
		c0.9,0,1.6-0.7,1.6-1.6C158.1,315.2,157.4,314.5,156.4,314.5 M162.6,316.4c-0.9,0-1.6,0.7-1.6,1.6c0,0.9,0.7,1.6,1.6,1.6
		c0.9,0,1.6-0.7,1.6-1.6C164.2,317.2,163.5,316.4,162.6,316.4 M164.9,313.9c0-0.9-0.7-1.6-1.6-1.6c-0.9,0-1.6,0.7-1.6,1.6
		c0,0.9,0.7,1.6,1.6,1.6C164.2,315.5,164.9,314.8,164.9,313.9 M167.2,314.1c-0.9,0-1.6,0.7-1.6,1.6c0,0.9,0.7,1.6,1.6,1.6
		s1.6-0.7,1.6-1.6C168.8,314.9,168.1,314.1,167.2,314.1 M170,322.3c0.9,0,1.6-0.7,1.6-1.6S171,319,170,319c-0.9,0-1.6,0.7-1.6,1.6
		S169.1,322.3,170,322.3 M168.7,312.9c0.9,0,1.6-0.7,1.6-1.6c0-0.9-0.7-1.6-1.6-1.6c-0.9,0-1.6,0.7-1.6,1.6
		C167.1,312.1,167.8,312.9,168.7,312.9 M172.3,306.1c0-0.9-0.7-1.6-1.6-1.6c-0.9,0-1.6,0.7-1.6,1.6c0,0.9,0.7,1.6,1.6,1.6
		C171.6,307.7,172.3,307,172.3,306.1 M176.5,309.7c0.9,0,1.6-0.7,1.6-1.6c0-0.9-0.7-1.6-1.6-1.6c-0.9,0-1.6,0.7-1.6,1.6
		C174.9,308.9,175.6,309.7,176.5,309.7 M173.3,313.6c0.9,0,1.6-0.7,1.6-1.6c0-0.9-0.7-1.6-1.6-1.6c-0.9,0-1.6,0.7-1.6,1.6
		C171.7,312.8,172.4,313.6,173.3,313.6 M173.3,316.4c0-0.9-0.7-1.6-1.6-1.6c-0.9,0-1.6,0.7-1.6,1.6c0,0.9,0.7,1.6,1.6,1.6
		C172.6,318.1,173.3,317.4,173.3,316.4 M181,309.3c0.9,0,1.6-0.7,1.6-1.6c0-0.9-0.7-1.6-1.6-1.6c-0.9,0-1.6,0.7-1.6,1.6
		C179.4,308.6,180.1,309.3,181,309.3 M177.5,311.2c-0.9,0-1.6,0.7-1.6,1.6c0,0.9,0.7,1.6,1.6,1.6s1.6-0.7,1.6-1.6
		C179.1,312,178.4,311.2,177.5,311.2 M168,341.2c0-0.9-0.7-1.6-1.6-1.6c-0.9,0-1.6,0.7-1.6,1.6c0,0.9,0.7,1.6,1.6,1.6
		C167.2,342.8,168,342.1,168,341.2 M167.1,349.2c-0.9,0-1.6,0.7-1.6,1.6c0,0.9,0.7,1.6,1.6,1.6c0.9,0,1.6-0.7,1.6-1.6
		C168.7,349.9,168,349.2,167.1,349.2 M165.8,355.9c-0.9,0-1.6,0.7-1.6,1.6c0,0.9,0.7,1.6,1.6,1.6s1.6-0.7,1.6-1.6
		C167.4,356.6,166.7,355.9,165.8,355.9 M180.6,361.1c0-0.9-0.7-1.6-1.6-1.6c-0.9,0-1.6,0.7-1.6,1.6c0,0.9,0.7,1.6,1.6,1.6
		C179.9,362.8,180.6,362.1,180.6,361.1 M183.4,358.6c-0.9,0-1.6,0.7-1.6,1.6c0,0.9,0.7,1.6,1.6,1.6c0.9,0,1.6-0.7,1.6-1.6
		C185,359.3,184.3,358.6,183.4,358.6 M184.9,353c-0.9,0-1.6,0.7-1.6,1.6c0,0.9,0.7,1.6,1.6,1.6c0.9,0,1.6-0.7,1.6-1.6
		C186.6,353.7,185.8,353,184.9,353 M181.7,366c0.9,0,1.6-0.7,1.6-1.6c0-0.9-0.7-1.6-1.6-1.6c-0.9,0-1.6,0.7-1.6,1.6
		C180.1,365.3,180.8,366,181.7,366 M175.5,367.9c-0.9,0-1.6,0.7-1.6,1.6c0,0.9,0.7,1.6,1.6,1.6c0.9,0,1.6-0.7,1.6-1.6
		C177.2,368.6,176.4,367.9,175.5,367.9 M176.9,366.6c0.9,0,1.6-0.7,1.6-1.6c0-0.9-0.7-1.6-1.6-1.6c-0.9,0-1.6,0.7-1.6,1.6
		C175.3,365.9,176,366.6,176.9,366.6 M179.6,366.5c-0.9,0-1.6,0.7-1.6,1.6c0,0.9,0.7,1.6,1.6,1.6c0.9,0,1.6-0.7,1.6-1.6
		C181.2,367.3,180.5,366.5,179.6,366.5 M174.6,372.4c-0.9,0-1.6,0.7-1.6,1.6c0,0.9,0.7,1.6,1.6,1.6c0.9,0,1.6-0.7,1.6-1.6
		C176.2,373.2,175.5,372.4,174.6,372.4 M158.9,362.9c-0.9,0-1.6,0.7-1.6,1.6c0,0.9,0.7,1.6,1.6,1.6c0.9,0,1.6-0.7,1.6-1.6
		C160.6,363.7,159.8,362.9,158.9,362.9 M155.6,371.2c0.9,0,1.6-0.7,1.6-1.6c0-0.9-0.7-1.6-1.6-1.6c-0.9,0-1.6,0.7-1.6,1.6
		C154,370.5,154.7,371.2,155.6,371.2 M154.3,375c-0.9,0-1.6,0.7-1.6,1.6c0,0.9,0.7,1.6,1.6,1.6c0.9,0,1.6-0.7,1.6-1.6
		C155.9,375.8,155.2,375,154.3,375 M149.5,383.4c0-0.9-0.7-1.6-1.6-1.6c-0.9,0-1.6,0.7-1.6,1.6c0,0.9,0.7,1.6,1.6,1.6
		C148.8,385.1,149.5,384.3,149.5,383.4 M141.5,387.3c-0.9,0-1.6,0.7-1.6,1.6c0,0.9,0.7,1.6,1.6,1.6c0.9,0,1.6-0.7,1.6-1.6
		C143.1,388.1,142.4,387.3,141.5,387.3 M135.3,391.1c-0.9,0-1.6,0.7-1.6,1.6c0,0.9,0.7,1.6,1.6,1.6c0.9,0,1.6-0.7,1.6-1.6
		C136.9,391.9,136.2,391.1,135.3,391.1 M129,392c-0.9,0-1.6,0.7-1.6,1.6c0,0.9,0.7,1.6,1.6,1.6c0.9,0,1.6-0.7,1.6-1.6
		C130.7,392.7,129.9,392,129,392 M125.1,385.5c0-0.9-0.7-1.6-1.6-1.6c-0.9,0-1.6,0.7-1.6,1.6c0,0.9,0.7,1.6,1.6,1.6
		C124.3,387.2,125.1,386.4,125.1,385.5 M123.2,379.6c0-0.9-0.7-1.6-1.6-1.6c-0.9,0-1.6,0.7-1.6,1.6c0,0.9,0.7,1.6,1.6,1.6
		C122.4,381.3,123.2,380.5,123.2,379.6 M122,375.8c0.9,0,1.6-0.7,1.6-1.6c0-0.9-0.7-1.6-1.6-1.6c-0.9,0-1.6,0.7-1.6,1.6
		C120.4,375.1,121.1,375.8,122,375.8 M120,370.5c0.9,0,1.6-0.7,1.6-1.6c0-0.9-0.7-1.6-1.6-1.6c-0.9,0-1.6,0.7-1.6,1.6
		C118.3,369.8,119.1,370.5,120,370.5 M119.5,359.9c0.9,0,1.6-0.7,1.6-1.6c0-0.9-0.7-1.6-1.6-1.6c-0.9,0-1.6,0.7-1.6,1.6
		C117.8,359.1,118.5,359.9,119.5,359.9 M124.5,352.2c0-0.9-0.7-1.6-1.6-1.6c-0.9,0-1.6,0.7-1.6,1.6c0,0.9,0.7,1.6,1.6,1.6
		C123.8,353.9,124.5,353.1,124.5,352.2 M121.8,347.5c0.9,0,1.6-0.7,1.6-1.6c0-0.9-0.7-1.6-1.6-1.6s-1.6,0.7-1.6,1.6
		C120.1,346.8,120.8,347.5,121.8,347.5 M117.4,337.8c0,0.9,0.7,1.6,1.6,1.6s1.6-0.7,1.6-1.6c0-0.9-0.7-1.6-1.6-1.6
		S117.4,336.9,117.4,337.8 M63.7,282.1c0.9,0,1.6-0.7,1.6-1.6c0-0.9-0.7-1.6-1.6-1.6c-0.9,0-1.6,0.7-1.6,1.6
		C62.1,281.4,62.8,282.1,63.7,282.1 M62.7,288c0.9,0,1.6-0.7,1.6-1.6c0-0.9-0.7-1.6-1.6-1.6c-0.9,0-1.6,0.7-1.6,1.6
		C61,287.3,61.8,288,62.7,288 M68.6,287.8c0,0.9,0.7,1.6,1.6,1.6c0.9,0,1.6-0.7,1.6-1.6c0-0.9-0.7-1.6-1.6-1.7
		C69.3,286.1,68.6,286.9,68.6,287.8 M64.9,289.6c-0.9,0-1.6,0.7-1.6,1.6c0,0.9,0.7,1.6,1.6,1.6c0.9,0,1.6-0.7,1.6-1.6
		C66.5,290.3,65.8,289.6,64.9,289.6 M166,323.5c0.9,0,1.6-0.7,1.6-1.6c0-0.9-0.7-1.6-1.6-1.6c-0.9,0-1.6,0.7-1.6,1.6
		C164.4,322.8,165.1,323.5,166,323.5 M168.1,334.7c-0.9,0-1.6,0.7-1.6,1.6c0,0.9,0.7,1.6,1.6,1.6c0.9,0,1.6-0.7,1.6-1.6
		C169.8,335.4,169,334.7,168.1,334.7 M72.5,305.8c0.9,0,1.6-0.7,1.6-1.6c0-0.9-0.7-1.6-1.6-1.6c-0.9,0-1.6,0.7-1.6,1.6
		C70.9,305.1,71.6,305.8,72.5,305.8 M87.3,310.2c-0.9,0-1.6,0.7-1.6,1.6c0,0.9,0.7,1.6,1.6,1.6c0.9,0,1.6-0.7,1.6-1.6
		C89,310.9,88.3,310.2,87.3,310.2 M60.6,293.2c-0.9,0-1.6,0.7-1.6,1.6c0,0.9,0.7,1.6,1.6,1.6s1.6-0.7,1.6-1.6
		C62.3,293.9,61.6,293.2,60.6,293.2 M82,297.5c0.9,0,1.6-0.7,1.6-1.6c0-0.9-0.7-1.6-1.6-1.6c-0.9,0-1.6,0.7-1.6,1.6
		C80.4,296.7,81.1,297.5,82,297.5 M68.9,296.4c0.9,0,1.6-0.7,1.6-1.6c0-0.9-0.7-1.6-1.6-1.6c-0.9,0-1.6,0.7-1.6,1.6
		C67.2,295.7,68,296.4,68.9,296.4 M79.5,314.2c-0.9,0-1.6,0.7-1.6,1.6c0,0.9,0.7,1.6,1.6,1.6c0.9,0,1.6-0.7,1.6-1.6
		C81.1,315,80.4,314.2,79.5,314.2 M78.1,295.8c0.9,0,1.6-0.7,1.6-1.6c0-0.9-0.7-1.6-1.6-1.6c-0.9,0-1.6,0.7-1.6,1.6
		C76.5,295.1,77.2,295.8,78.1,295.8 M84.9,301.6c0-0.9-0.7-1.6-1.6-1.6c-0.9,0-1.6,0.7-1.6,1.6c0,0.9,0.7,1.6,1.6,1.6
		C84.2,303.2,84.9,302.5,84.9,301.6 M93.8,308.5c-0.9,0-1.6,0.7-1.7,1.6c0,0.9,0.7,1.6,1.7,1.6c0.9,0,1.6-0.7,1.6-1.6
		C95.4,309.2,94.7,308.5,93.8,308.5 M99.5,309.4c0-0.9-0.7-1.6-1.6-1.6c-0.9,0-1.6,0.7-1.6,1.6c0,0.9,0.7,1.6,1.6,1.6
		C98.8,311.1,99.5,310.3,99.5,309.4 M101.9,304.2c0.9,0,1.6-0.7,1.6-1.6c0-0.9-0.7-1.6-1.6-1.6c-0.9,0-1.6,0.7-1.6,1.6
		C100.2,303.4,101,304.2,101.9,304.2 M97.7,306.3c0.9,0,1.6-0.7,1.6-1.6c0-0.9-0.7-1.6-1.6-1.6c-0.9,0-1.6,0.7-1.6,1.6
		C96.1,305.6,96.8,306.3,97.7,306.3 M93.9,301.2c-0.9,0-1.6,0.7-1.6,1.6c0,0.9,0.7,1.6,1.6,1.6c0.9,0,1.6-0.7,1.6-1.6
		C95.6,301.9,94.9,301.2,93.9,301.2 M99.6,300.5c0.9,0,1.6-0.7,1.6-1.6c0-0.9-0.7-1.6-1.6-1.6c-0.9,0-1.6,0.7-1.6,1.6
		C98,299.8,98.7,300.5,99.6,300.5 M112.5,313.4c0-0.9-0.7-1.6-1.6-1.6c-0.9,0-1.6,0.7-1.6,1.6c0,0.9,0.7,1.6,1.6,1.6
		C111.8,315.1,112.5,314.3,112.5,313.4 M89.6,295.7c0-0.9-0.7-1.6-1.6-1.6c-0.9,0-1.6,0.7-1.6,1.6c0,0.9,0.7,1.6,1.6,1.6
		C88.8,297.4,89.6,296.6,89.6,295.7 M90.8,290.7c-0.9,0-1.6,0.7-1.6,1.6c0,0.9,0.7,1.6,1.6,1.6c0.9,0,1.6-0.7,1.6-1.6
		C92.4,291.5,91.7,290.7,90.8,290.7 M94.4,287c0-0.9-0.7-1.6-1.6-1.6c-0.9,0-1.6,0.7-1.6,1.6c0,0.9,0.7,1.6,1.6,1.6
		C93.6,288.7,94.4,287.9,94.4,287 M89.1,305.9c0.9,0,1.6-0.7,1.6-1.6c0-0.9-0.7-1.6-1.6-1.6c-0.9,0-1.6,0.7-1.6,1.6
		C87.5,305.2,88.2,305.9,89.1,305.9 M90.5,297.9c-0.9,0-1.6,0.7-1.6,1.6c0,0.9,0.7,1.6,1.6,1.6c0.9,0,1.6-0.7,1.6-1.6
		C92.1,298.6,91.4,297.9,90.5,297.9 M103.7,307.9c0-0.9-0.7-1.6-1.6-1.6c-0.9,0-1.6,0.7-1.6,1.6c0,0.9,0.7,1.6,1.6,1.6
		C103,309.6,103.7,308.8,103.7,307.9 M105.2,302.9c-0.9,0-1.6,0.7-1.6,1.6c0,0.9,0.7,1.6,1.6,1.6c0.9,0,1.6-0.7,1.6-1.6
		C106.9,303.6,106.1,302.9,105.2,302.9 M110.2,309.3c0-0.9-0.7-1.6-1.6-1.6c-0.9,0-1.6,0.7-1.6,1.6c0,0.9,0.7,1.6,1.6,1.6
		C109.5,310.9,110.2,310.2,110.2,309.3 M115.2,315.8c0.9,0,1.6-0.7,1.6-1.6c0-0.9-0.7-1.6-1.6-1.6c-0.9,0-1.6,0.7-1.6,1.6
		C113.6,315.1,114.3,315.8,115.2,315.8 M104.9,298.1c0-0.9-0.7-1.6-1.6-1.6c-0.9,0-1.6,0.7-1.6,1.6c0,0.9,0.7,1.6,1.6,1.6
		C104.1,299.7,104.9,299,104.9,298.1 M88.2,285.4c0-0.9-0.7-1.6-1.6-1.6c-0.9,0-1.6,0.7-1.6,1.6c0,0.9,0.7,1.6,1.6,1.6
		C87.5,287,88.2,286.3,88.2,285.4 M86.5,291c0-0.9-0.7-1.6-1.6-1.6c-0.9,0-1.6,0.7-1.6,1.6c0,0.9,0.7,1.6,1.6,1.6
		C85.8,292.7,86.5,291.9,86.5,291 M84.3,280.7c0,0.9,0.7,1.6,1.6,1.6c0.9,0,1.6-0.7,1.6-1.6c0-0.9-0.7-1.6-1.6-1.6
		C85,279.1,84.3,279.8,84.3,280.7 M68.3,273.6c0,0.9,0.7,1.6,1.6,1.6c0.9,0,1.6-0.7,1.6-1.6c0-0.9-0.7-1.6-1.6-1.6
		C69,272,68.3,272.7,68.3,273.6 M79,281.5c0,0.9,0.7,1.6,1.6,1.6c0.9,0,1.6-0.7,1.6-1.6c0-0.9-0.7-1.6-1.6-1.6
		C79.7,279.8,79,280.6,79,281.5 M73.3,273.9c0,0.9,0.7,1.6,1.6,1.6c0.9,0,1.6-0.7,1.6-1.6c0-0.9-0.7-1.6-1.6-1.7
		C74,272.2,73.3,273,73.3,273.9 M78.4,275.5c-0.9,0-1.6,0.7-1.6,1.6c0,0.9,0.7,1.6,1.6,1.6c0.9,0,1.6-0.7,1.6-1.6
		C80,276.2,79.3,275.5,78.4,275.5 M89.9,277c0-0.9-0.7-1.6-1.6-1.6c-0.9,0-1.6,0.7-1.6,1.6c0,0.9,0.7,1.6,1.6,1.6
		C89.1,278.6,89.9,277.9,89.9,277 M82.8,268.7c-0.9,0-1.6,0.7-1.6,1.6c0,0.9,0.7,1.6,1.6,1.6c0.9,0,1.6-0.7,1.6-1.6
		C84.5,269.4,83.8,268.7,82.8,268.7 M83,274.4c-0.9,0-1.6,0.7-1.6,1.6c0,0.9,0.7,1.6,1.6,1.6c0.9,0,1.6-0.7,1.6-1.6
		C84.6,275.1,83.9,274.4,83,274.4 M85.9,272.6c0,0.9,0.7,1.6,1.6,1.6c0.9,0,1.6-0.7,1.6-1.6c0-0.9-0.7-1.6-1.6-1.6
		C86.6,270.9,85.9,271.7,85.9,272.6 M76.6,267.1c-0.9,0-1.6,0.7-1.6,1.6c0,0.9,0.7,1.6,1.6,1.6c0.9,0,1.6-0.7,1.6-1.6
		C78.2,267.8,77.5,267.1,76.6,267.1 M99.6,278.8c0.9,0,1.6-0.7,1.6-1.6c0-0.9-0.7-1.6-1.6-1.6c-0.9,0-1.6,0.7-1.6,1.6
		C98,278,98.7,278.8,99.6,278.8 M99.4,272.8c0.9,0,1.6-0.7,1.6-1.6c0-0.9-0.7-1.6-1.6-1.6c-0.9,0-1.6,0.7-1.6,1.6
		C97.7,272.1,98.5,272.8,99.4,272.8 M91.2,284c0.9,0,1.6-0.7,1.6-1.6c0-0.9-0.7-1.6-1.6-1.6c-0.9,0-1.6,0.7-1.6,1.6
		C89.5,283.3,90.2,284,91.2,284 M96.6,284.3c0.9,0,1.6-0.7,1.6-1.6c0-0.9-0.7-1.6-1.6-1.6c-0.9,0-1.6,0.7-1.6,1.6
		C94.9,283.6,95.7,284.3,96.6,284.3 M104.9,265.3c0-0.9-0.7-1.6-1.6-1.6c-0.9,0-1.6,0.7-1.6,1.6c0,0.9,0.7,1.6,1.6,1.6
		C104.1,267,104.9,266.2,104.9,265.3 M85.9,263.4c0.9,0,1.6-0.7,1.6-1.6c0-0.9-0.7-1.6-1.6-1.6c-0.9,0-1.6,0.7-1.6,1.6
		C84.3,262.6,85,263.4,85.9,263.4 M108.6,267.4c0.9,0,1.6-0.7,1.6-1.6c0-0.9-0.7-1.6-1.6-1.6c-0.9,0-1.6,0.7-1.6,1.6
		C107,266.7,107.7,267.4,108.6,267.4 M112.4,267.3c0,0.9,0.7,1.6,1.6,1.6c0.9,0,1.6-0.7,1.6-1.6c0-0.9-0.7-1.6-1.6-1.6
		C113.1,265.7,112.4,266.4,112.4,267.3 M111.7,272.3c0-0.9-0.7-1.6-1.6-1.6c-0.9,0-1.6,0.7-1.6,1.6c0,0.9,0.7,1.6,1.6,1.6
		C111,273.9,111.7,273.2,111.7,272.3 M116.6,270.6c-0.9,0-1.6,0.7-1.6,1.6c0,0.9,0.7,1.6,1.6,1.6c0.9,0,1.6-0.7,1.6-1.6
		C118.2,271.4,117.5,270.6,116.6,270.6 M104.3,272.2c0.9,0,1.6-0.7,1.6-1.6c0-0.9-0.7-1.6-1.6-1.6c-0.9,0-1.6,0.7-1.6,1.6
		C102.7,271.5,103.4,272.2,104.3,272.2 M105.3,279.5c0.9,0,1.6-0.7,1.6-1.6c0-0.9-0.7-1.6-1.6-1.6c-0.9,0-1.6,0.7-1.6,1.6
		C103.7,278.8,104.4,279.5,105.3,279.5 M118.1,277.9c0-0.9-0.7-1.6-1.6-1.6c-0.9,0-1.6,0.7-1.6,1.6c0,0.9,0.7,1.6,1.6,1.6
		C117.3,279.5,118.1,278.8,118.1,277.9 M106.4,284.8c0-0.9-0.7-1.6-1.6-1.6c-0.9,0-1.6,0.7-1.6,1.6c0,0.9,0.7,1.6,1.6,1.6
		C105.7,286.5,106.4,285.7,106.4,284.8 M125.5,295.6c0.9,0,1.6-0.7,1.6-1.6c0-0.9-0.7-1.6-1.6-1.6c-0.9,0-1.6,0.7-1.6,1.6
		C123.8,294.8,124.6,295.6,125.5,295.6 M119.5,315.4c0.9,0,1.6-0.7,1.6-1.6c0-0.9-0.7-1.6-1.6-1.6c-0.9,0-1.6,0.7-1.6,1.6
		C117.8,314.6,118.5,315.4,119.5,315.4 M88.6,262.6c0,0.9,0.7,1.6,1.6,1.6c0.9,0,1.6-0.7,1.6-1.6c0-0.9-0.7-1.6-1.6-1.6
		C89.4,260.9,88.6,261.7,88.6,262.6 M97.2,261.8c0-0.9-0.7-1.6-1.6-1.6c-0.9,0-1.6,0.7-1.6,1.6c0,0.9,0.7,1.6,1.6,1.6
		C96.4,263.4,97.2,262.7,97.2,261.8 M96,275.7c0.9,0,1.6-0.7,1.6-1.6c0-0.9-0.7-1.6-1.6-1.6c-0.9,0-1.6,0.7-1.6,1.6
		C94.3,274.9,95.1,275.7,96,275.7 M112.3,278.1c0.9,0,1.6-0.7,1.6-1.6c0-0.9-0.7-1.6-1.6-1.6c-0.9,0-1.6,0.7-1.6,1.6
		C110.7,277.4,111.4,278.1,112.3,278.1 M109.2,287.3c0.9,0,1.6-0.7,1.6-1.6c0-0.9-0.7-1.6-1.6-1.6c-0.9,0-1.6,0.7-1.6,1.6
		C107.6,286.5,108.3,287.3,109.2,287.3 M105.8,290c0-0.9-0.7-1.6-1.6-1.6c-0.9,0-1.6,0.7-1.6,1.6c0,0.9,0.7,1.6,1.6,1.6
		C105.1,291.6,105.8,290.9,105.8,290 M107.8,302c0.9,0,1.6-0.7,1.6-1.6c0-0.9-0.7-1.6-1.6-1.6c-0.9,0-1.6,0.7-1.6,1.6
		C106.2,301.2,106.9,302,107.8,302 M113,305.9c0.9,0,1.6-0.7,1.6-1.6c0-0.9-0.7-1.6-1.6-1.6c-0.9,0-1.6,0.7-1.6,1.6
		C111.3,305.2,112.1,305.9,113,305.9 M120.9,309c0-0.9-0.7-1.6-1.6-1.6c-0.9,0-1.6,0.7-1.6,1.6c0,0.9,0.7,1.6,1.6,1.6
		C120.2,310.7,120.9,309.9,120.9,309 M113.3,280.4c0-0.9-0.7-1.6-1.6-1.6c-0.9,0-1.6,0.7-1.6,1.6c0,0.9,0.7,1.6,1.6,1.6
		C112.6,282.1,113.3,281.3,113.3,280.4 M113.8,292.5c0.9,0,1.6-0.7,1.6-1.6c0-0.9-0.7-1.6-1.6-1.6c-0.9,0-1.6,0.7-1.6,1.6
		C112.1,291.8,112.9,292.5,113.8,292.5 M110.8,293.5c0-0.9-0.7-1.6-1.6-1.6c-0.9,0-1.6,0.7-1.6,1.6c0,0.9,0.7,1.6,1.6,1.6
		C110.1,295.1,110.8,294.4,110.8,293.5 M112.6,285.7c0,0.9,0.7,1.6,1.6,1.6c0.9,0,1.6-0.7,1.6-1.6c0-0.9-0.7-1.6-1.6-1.6
		C113.3,284,112.6,284.8,112.6,285.7 M119.8,290.2c0.9,0,1.6-0.7,1.6-1.6c0-0.9-0.7-1.6-1.6-1.6c-0.9,0-1.6,0.7-1.6,1.6
		C118.2,289.5,118.9,290.2,119.8,290.2 M120.8,280.1c-0.9,0-1.6,0.7-1.6,1.6c0,0.9,0.7,1.6,1.6,1.6c0.9,0,1.6-0.7,1.6-1.6
		S121.7,280.1,120.8,280.1 M129.4,284.6c0-0.9-0.7-1.6-1.6-1.6c-0.9,0-1.6,0.7-1.6,1.6c0,0.9,0.7,1.6,1.6,1.6
		C128.7,286.2,129.4,285.5,129.4,284.6 M121.7,270.3c-0.9,0-1.6,0.7-1.6,1.6c0,0.9,0.7,1.6,1.6,1.6c0.9,0,1.6-0.7,1.6-1.6
		C123.3,271.1,122.6,270.3,121.7,270.3 M129.6,266.6c-0.9,0-1.6,0.7-1.6,1.6c0,0.9,0.7,1.6,1.6,1.6c0.9,0,1.6-0.7,1.6-1.6
		C131.3,267.3,130.5,266.6,129.6,266.6 M138.2,269.3c-0.9,0-1.6,0.7-1.6,1.6c0,0.9,0.7,1.6,1.6,1.6c0.9,0,1.6-0.7,1.6-1.6
		C139.8,270,139.1,269.3,138.2,269.3 M141.6,275.6c-0.9,0-1.6,0.7-1.6,1.6c0,0.9,0.7,1.6,1.6,1.6c0.9,0,1.6-0.7,1.6-1.6
		C143.3,276.3,142.5,275.6,141.6,275.6 M137.7,281.1c0.9,0,1.6-0.7,1.6-1.6c0-0.9-0.7-1.6-1.6-1.6c-0.9,0-1.6,0.7-1.6,1.6
		C136.1,280.4,136.8,281.1,137.7,281.1 M137.7,285.8c0.9,0,1.6-0.7,1.6-1.6c0-0.9-0.7-1.6-1.6-1.7c-0.9,0-1.6,0.7-1.6,1.7
		C136,285,136.7,285.8,137.7,285.8 M145.7,279.1c-0.9,0-1.6,0.7-1.6,1.6c0,0.9,0.7,1.6,1.6,1.6c0.9,0,1.6-0.7,1.6-1.6
		C147.4,279.9,146.6,279.1,145.7,279.1 M152.1,278.4c-0.9,0-1.6,0.7-1.6,1.6c0,0.9,0.7,1.6,1.6,1.6c0.9,0,1.6-0.7,1.6-1.6
		C153.7,279.1,153,278.4,152.1,278.4 M147.4,283.7c0,0.9,0.7,1.6,1.6,1.6c0.9,0,1.6-0.7,1.6-1.6c0-0.9-0.7-1.6-1.6-1.6
		C148.1,282.1,147.4,282.8,147.4,283.7 M136.5,290.2c0,0.9,0.7,1.6,1.6,1.6c0.9,0,1.6-0.7,1.6-1.6c0-0.9-0.7-1.6-1.6-1.6
		C137.3,288.6,136.6,289.3,136.5,290.2 M130.5,293.2c0.9,0,1.6-0.7,1.6-1.6c0-0.9-0.7-1.6-1.6-1.6c-0.9,0-1.6,0.7-1.6,1.6
		C128.9,292.5,129.6,293.2,130.5,293.2 M134.8,287.1c0-0.9-0.7-1.6-1.6-1.6c-0.9,0-1.6,0.7-1.6,1.6c0,0.9,0.7,1.6,1.6,1.6
		C134,288.7,134.8,288,134.8,287.1 M120.5,292.1c-0.9,0-1.6,0.7-1.6,1.6c0,0.9,0.7,1.6,1.6,1.6c0.9,0,1.6-0.7,1.6-1.6
		C122.1,292.9,121.4,292.1,120.5,292.1 M115.7,298.9c0.9,0,1.6-0.7,1.6-1.6c0-0.9-0.7-1.6-1.6-1.6c-0.9,0-1.6,0.7-1.6,1.6
		C114.1,298.2,114.8,298.9,115.7,298.9 M125.2,300.2c0.9,0,1.6-0.7,1.6-1.6c0-0.9-0.7-1.6-1.6-1.6c-0.9,0-1.6,0.7-1.6,1.6
		C123.6,299.4,124.3,300.2,125.2,300.2 M123.2,302c0-0.9-0.7-1.6-1.6-1.6c-0.9,0-1.6,0.7-1.6,1.6c0,0.9,0.7,1.6,1.6,1.6
		C122.5,303.7,123.2,302.9,123.2,302 M130.7,297.1c0,0.9,0.7,1.6,1.6,1.6c0.9,0,1.6-0.7,1.6-1.6c0-0.9-0.7-1.6-1.6-1.6
		C131.4,295.5,130.7,296.2,130.7,297.1 M136.1,297.7c0,0.9,0.7,1.6,1.6,1.6c0.9,0,1.6-0.7,1.6-1.6c0-0.9-0.7-1.6-1.6-1.6
		C136.8,296,136.1,296.8,136.1,297.7 M131.4,304.5c0.9,0,1.6-0.7,1.6-1.6c0-0.9-0.7-1.6-1.6-1.6c-0.9,0-1.6,0.7-1.6,1.6
		C129.7,303.8,130.5,304.5,131.4,304.5 M124.8,309.9c0.9,0,1.6-0.7,1.6-1.6c0-0.9-0.7-1.6-1.6-1.6c-0.9,0-1.6,0.7-1.6,1.6
		C123.1,309.2,123.9,309.9,124.8,309.9 M128.8,303.6c0-0.9-0.7-1.6-1.6-1.6c-0.9,0-1.6,0.7-1.6,1.6c0,0.9,0.7,1.6,1.6,1.6
		C128,305.2,128.8,304.5,128.8,303.6 M122.5,314.2c0,0.9,0.7,1.6,1.6,1.6c0.9,0,1.6-0.7,1.6-1.6s-0.7-1.6-1.6-1.6
		C123.2,312.5,122.5,313.3,122.5,314.2 M121.5,318.5c0-0.9-0.7-1.6-1.6-1.6c-0.9,0-1.6,0.7-1.6,1.6c0,0.9,0.7,1.6,1.6,1.6
		C120.7,320.1,121.5,319.4,121.5,318.5 M127,319.1c0-0.9-0.7-1.6-1.6-1.6c-0.9,0-1.6,0.7-1.6,1.6c0,0.9,0.7,1.6,1.6,1.6
		C126.3,320.7,127,320,127,319.1 M131.3,319c-0.9,0-1.6,0.7-1.6,1.6c0,0.9,0.7,1.6,1.6,1.6c0.9,0,1.6-0.7,1.6-1.6
		C133,319.7,132.2,319,131.3,319 M144.2,323.2c0-0.9-0.7-1.6-1.6-1.6c-0.9,0-1.6,0.7-1.6,1.6c0,0.9,0.7,1.6,1.6,1.6
		C143.5,324.8,144.2,324.1,144.2,323.2 M134,308.3c0-0.9-0.7-1.6-1.6-1.6c-0.9,0-1.6,0.7-1.6,1.6c0,0.9,0.7,1.6,1.6,1.6
		C133.3,309.9,134,309.2,134,308.3 M138.4,310c0.9,0,1.6-0.7,1.6-1.6c0-0.9-0.7-1.6-1.6-1.6c-0.9,0-1.6,0.7-1.6,1.6
		C136.8,309.3,137.5,310,138.4,310 M137,302.7c0,0.9,0.7,1.6,1.6,1.6c0.9,0,1.6-0.7,1.6-1.6c0-0.9-0.7-1.6-1.6-1.6
		C137.8,301.1,137,301.8,137,302.7 M138.7,294c0,0.9,0.7,1.6,1.6,1.6c0.9,0,1.6-0.7,1.6-1.6c0-0.9-0.7-1.6-1.6-1.6
		S138.7,293.1,138.7,294 M146.7,293.4c0,0.9,0.7,1.6,1.6,1.6c0.9,0,1.6-0.7,1.6-1.6c0-0.9-0.7-1.6-1.6-1.6
		C147.4,291.8,146.7,292.5,146.7,293.4 M154.1,297.6c0-0.9-0.7-1.6-1.6-1.6c-0.9,0-1.6,0.7-1.6,1.6c0,0.9,0.7,1.6,1.6,1.6
		C153.4,299.2,154.1,298.5,154.1,297.6 M148.8,298.9c-0.9,0-1.6,0.7-1.6,1.6c0,0.9,0.7,1.6,1.6,1.6c0.9,0,1.6-0.7,1.6-1.6
		C150.5,299.6,149.7,298.9,148.8,298.9 M146.1,297c0-0.9-0.7-1.6-1.6-1.6c-0.9,0-1.6,0.7-1.6,1.6c0,0.9,0.7,1.6,1.6,1.6
		C145.3,298.6,146.1,297.9,146.1,297 M145.6,302.4c0-0.9-0.7-1.6-1.6-1.6s-1.6,0.7-1.6,1.6c0,0.9,0.7,1.6,1.6,1.6
		C144.9,304.1,145.6,303.4,145.6,302.4 M168.3,326.4c0-0.9-0.7-1.6-1.6-1.6c-0.9,0-1.6,0.7-1.6,1.6c0,0.9,0.7,1.6,1.6,1.6
		S168.3,327.3,168.3,326.4 M150.3,321.3c0-0.9-0.7-1.6-1.6-1.6c-0.9,0-1.6,0.7-1.6,1.6c0,0.9,0.7,1.6,1.6,1.6
		C149.6,322.9,150.3,322.2,150.3,321.3 M137.3,323.9c0.9,0,1.6-0.7,1.6-1.6c0-0.9-0.7-1.6-1.6-1.6c-0.9,0-1.6,0.7-1.6,1.6
		C135.7,323.2,136.4,323.9,137.3,323.9 M137.3,316.1c0.9,0,1.6-0.7,1.6-1.6c0-0.9-0.7-1.6-1.6-1.6s-1.6,0.7-1.6,1.6
		C135.7,315.4,136.4,316.1,137.3,316.1 M139.1,318.3c0,0.9,0.7,1.6,1.6,1.6s1.6-0.7,1.6-1.6c0-0.9-0.7-1.6-1.6-1.6
		C139.9,316.7,139.1,317.4,139.1,318.3 M140.8,313.3c0,0.9,0.7,1.6,1.6,1.6c0.9,0,1.6-0.7,1.6-1.6c0-0.9-0.7-1.6-1.6-1.6
		C141.6,311.6,140.8,312.3,140.8,313.3 M134.3,315.9c-0.9,0-1.6,0.7-1.6,1.6c0,0.9,0.7,1.6,1.6,1.6c0.9,0,1.6-0.7,1.6-1.6
		C135.9,316.7,135.2,315.9,134.3,315.9 M143.5,328.1c0-0.9-0.7-1.6-1.6-1.6c-0.9,0-1.6,0.7-1.6,1.6c0,0.9,0.7,1.6,1.6,1.6
		C142.8,329.7,143.5,329,143.5,328.1 M139.7,344.4c0.9,0,1.6-0.7,1.6-1.6c0-0.9-0.7-1.6-1.6-1.6c-0.9,0-1.6,0.7-1.6,1.6
		C138.1,343.7,138.8,344.4,139.7,344.4 M136.7,350.6c0-0.9-0.7-1.6-1.6-1.6s-1.6,0.7-1.6,1.6c0,0.9,0.7,1.6,1.6,1.6
		C136,352.3,136.7,351.5,136.7,350.6 M131.8,342.6c0-0.9-0.7-1.6-1.6-1.6c-0.9,0-1.6,0.7-1.6,1.6c0,0.9,0.7,1.6,1.6,1.6
		C131,344.2,131.8,343.5,131.8,342.6 M141.3,366.5c0-0.9-0.7-1.6-1.6-1.6c-0.9,0-1.6,0.7-1.6,1.6c0,0.9,0.7,1.6,1.6,1.6
		C140.6,368.2,141.3,367.5,141.3,366.5 M125.4,363.9c0.9,0,1.6-0.7,1.6-1.6c0-0.9-0.7-1.6-1.6-1.6c-0.9,0-1.6,0.7-1.6,1.6
		C123.7,363.1,124.5,363.9,125.4,363.9 M120.4,361c-0.9,0-1.6,0.7-1.6,1.6c0,0.9,0.7,1.6,1.6,1.6c0.9,0,1.6-0.7,1.6-1.6
		C122,361.8,121.3,361,120.4,361 M120,340.9c0,0.9,0.7,1.6,1.6,1.6c0.9,0,1.6-0.7,1.6-1.6c0-0.9-0.7-1.6-1.6-1.6
		C120.7,339.3,120,340,120,340.9 M118.8,333.2c0-0.9-0.7-1.6-1.6-1.6c-0.9,0-1.6,0.7-1.6,1.6c0,0.9,0.7,1.6,1.6,1.6
		C118,334.8,118.8,334.1,118.8,333.2 M113.9,324.4c-0.9,0-1.6,0.7-1.6,1.6c0,0.9,0.7,1.6,1.6,1.6c0.9,0,1.6-0.7,1.6-1.6
		C115.5,325.2,114.8,324.4,113.9,324.4 M131.1,314.5c0-0.9-0.7-1.6-1.6-1.6c-0.9,0-1.6,0.7-1.6,1.6c0,0.9,0.7,1.6,1.6,1.6
		C130.4,316.1,131.1,315.4,131.1,314.5 M130.4,327.8c0.9,0,1.6-0.7,1.6-1.6c0-0.9-0.7-1.6-1.6-1.6c-0.9,0-1.6,0.7-1.6,1.6
		C128.8,327.1,129.5,327.8,130.4,327.8 M128.6,329.6c0-0.9-0.7-1.6-1.6-1.6c-0.9,0-1.6,0.7-1.6,1.6c0,0.9,0.7,1.6,1.6,1.6
		C127.9,331.3,128.6,330.5,128.6,329.6 M123.8,325.7c0.9,0,1.6-0.7,1.6-1.6c0-0.9-0.7-1.6-1.6-1.6c-0.9,0-1.6,0.7-1.6,1.6
		C122.2,325,122.9,325.7,123.8,325.7 M118.6,325.7c0.9,0,1.6-0.7,1.6-1.6c0-0.9-0.7-1.6-1.6-1.6c-0.9,0-1.6,0.7-1.6,1.6
		C117,324.9,117.7,325.7,118.6,325.7 M122.7,332c0.9,0,1.6-0.7,1.6-1.6c0-0.9-0.7-1.6-1.6-1.6c-0.9,0-1.6,0.7-1.6,1.6
		C121.1,331.3,121.8,332,122.7,332 M118.5,330.6c0.9,0,1.6-0.7,1.6-1.6c0-0.9-0.7-1.6-1.6-1.6c-0.9,0-1.6,0.7-1.6,1.6
		C116.9,329.9,117.6,330.6,118.5,330.6 M125.3,387.8c-0.9,0-1.6,0.7-1.6,1.6c0,0.9,0.7,1.6,1.6,1.6c0.9,0,1.6-0.7,1.6-1.6
		C127,388.5,126.2,387.8,125.3,387.8 M144.3,383.8c-0.9,0-1.6,0.7-1.6,1.6c0,0.9,0.7,1.6,1.6,1.6c0.9,0,1.6-0.7,1.6-1.6
		C146,384.5,145.2,383.8,144.3,383.8 M151.4,372c-0.9,0-1.6,0.7-1.6,1.6c0,0.9,0.7,1.6,1.6,1.6c0.9,0,1.6-0.7,1.6-1.6
		C153.1,372.7,152.3,372,151.4,372 M150.5,377.6c-0.9,0-1.6,0.7-1.6,1.6c0,0.9,0.7,1.6,1.6,1.6c0.9,0,1.6-0.7,1.6-1.6
		C152.1,378.3,151.4,377.6,150.5,377.6 M129.9,332.6c0,0.9,0.7,1.6,1.6,1.6c0.9,0,1.6-0.7,1.6-1.6c0-0.9-0.7-1.6-1.6-1.6
		C130.6,330.9,129.9,331.7,129.9,332.6 M125,336.3c0.9,0,1.6-0.7,1.6-1.6c0-0.9-0.7-1.6-1.6-1.6c-0.9,0-1.6,0.7-1.6,1.6
		C123.4,335.5,124.1,336.3,125,336.3 M126,341.9c0.9,0,1.6-0.7,1.6-1.6c0-0.9-0.7-1.6-1.6-1.6c-0.9,0-1.6,0.7-1.6,1.6
		C124.3,341.2,125.1,341.9,126,341.9 M127.5,346.3c-0.9,0-1.6,0.7-1.6,1.6c0,0.9,0.7,1.6,1.6,1.6c0.9,0,1.6-0.7,1.6-1.6
		C129.1,347,128.4,346.3,127.5,346.3 M130.1,346c0,0.9,0.7,1.6,1.6,1.6c0.9,0,1.6-0.7,1.6-1.6c0-0.9-0.7-1.6-1.6-1.6
		S130.1,345.1,130.1,346 M139.9,336.2c-0.9,0-1.6,0.7-1.6,1.6c0,0.9,0.7,1.6,1.6,1.6c0.9,0,1.6-0.7,1.6-1.6
		C141.6,337,140.8,336.2,139.9,336.2 M138.6,334.9c0-0.9-0.7-1.6-1.6-1.6c-0.9,0-1.6,0.7-1.6,1.6c0,0.9,0.7,1.6,1.6,1.6
		C137.8,336.5,138.6,335.8,138.6,334.9 M136.9,329.4c0.9,0,1.6-0.7,1.6-1.6c0-0.9-0.7-1.6-1.6-1.6c-0.9,0-1.6,0.7-1.6,1.6
		C135.3,328.6,136,329.4,136.9,329.4 M141.1,333.7c0.9,0,1.6-0.7,1.6-1.6c0-0.9-0.7-1.6-1.6-1.6c-0.9,0-1.6,0.7-1.6,1.6
		C139.4,332.9,140.2,333.7,141.1,333.7 M147,331.7c0-0.9-0.7-1.6-1.6-1.6c-0.9,0-1.6,0.7-1.6,1.6c0,0.9,0.7,1.6,1.6,1.6
		C146.3,333.4,147,332.7,147,331.7 M146.7,329c0.9,0,1.6-0.7,1.6-1.6c0-0.9-0.7-1.6-1.6-1.6c-0.9,0-1.6,0.7-1.6,1.6
		C145,328.3,145.7,329,146.7,329 M146.9,316.6c0-0.9-0.7-1.6-1.6-1.6c-0.9,0-1.6,0.7-1.6,1.6c0,0.9,0.7,1.6,1.6,1.6
		C146.2,318.2,146.9,317.5,146.9,316.6 M144.7,308.1c0-0.9-0.7-1.6-1.6-1.6c-0.9,0-1.6,0.7-1.6,1.6c0,0.9,0.7,1.6,1.6,1.6
		C144,309.7,144.7,309,144.7,308.1 M147,313.3c0.9,0,1.6-0.7,1.6-1.6c0-0.9-0.7-1.6-1.6-1.6c-0.9,0-1.6,0.7-1.6,1.6
		C145.3,312.5,146,313.3,147,313.3 M150.2,305.8c0-0.9-0.7-1.6-1.6-1.6c-0.9,0-1.6,0.7-1.6,1.6c0,0.9,0.7,1.6,1.6,1.6
		C149.4,307.4,150.2,306.7,150.2,305.8 M154,310.2c0-0.9-0.7-1.6-1.6-1.6s-1.6,0.7-1.6,1.6c0,0.9,0.7,1.6,1.6,1.6
		C153.3,311.8,154,311.1,154,310.2 M154.6,319.7c0-0.9-0.7-1.6-1.6-1.6c-0.9,0-1.6,0.7-1.6,1.6c0,0.9,0.7,1.6,1.6,1.6
		S154.6,320.6,154.6,319.7 M156.4,303.9c0-0.9-0.7-1.6-1.6-1.6s-1.6,0.7-1.6,1.6c0,0.9,0.7,1.6,1.6,1.6
		C155.6,305.5,156.4,304.8,156.4,303.9 M158.6,323.4c0.9,0,1.6-0.7,1.6-1.6c0-0.9-0.7-1.6-1.6-1.6s-1.6,0.7-1.6,1.6
		C156.9,322.7,157.7,323.4,158.6,323.4 M151.2,330.5c0.9,0,1.6-0.7,1.6-1.6c0-0.9-0.7-1.6-1.6-1.6s-1.6,0.7-1.6,1.6
		C149.5,329.7,150.3,330.5,151.2,330.5 M157.4,325.1c0-0.9-0.7-1.6-1.6-1.6c-0.9,0-1.6,0.7-1.6,1.6c0,0.9,0.7,1.6,1.6,1.6
		C156.7,326.7,157.4,326,157.4,325.1 M158.9,331.2c0-0.9-0.7-1.6-1.6-1.6c-0.9,0-1.6,0.7-1.6,1.6c0,0.9,0.7,1.6,1.6,1.6
		C158.1,332.9,158.8,332.1,158.9,331.2 M160.3,337.2c0.9,0,1.6-0.7,1.6-1.6c0-0.9-0.7-1.6-1.6-1.6c-0.9,0-1.6,0.7-1.6,1.6
		C158.7,336.5,159.4,337.2,160.3,337.2 M163.2,328c0-0.9-0.7-1.6-1.6-1.6s-1.6,0.7-1.6,1.6c0,0.9,0.7,1.6,1.6,1.6
		S163.2,328.9,163.2,328 M167.5,332.3c0-0.9-0.7-1.6-1.6-1.6c-0.9,0-1.6,0.7-1.6,1.6c0,0.9,0.7,1.6,1.6,1.6
		C166.8,334,167.5,333.2,167.5,332.3 M149.6,335.3c0-0.9-0.7-1.6-1.6-1.6c-0.9,0-1.6,0.7-1.6,1.6c0,0.9,0.7,1.6,1.6,1.6
		S149.6,336.2,149.6,335.3 M146.1,341.3c0-0.9-0.7-1.6-1.6-1.6s-1.6,0.7-1.6,1.6c0,0.9,0.7,1.6,1.6,1.6S146.1,342.2,146.1,341.3
		 M143.1,347.7c0.9,0,1.6-0.7,1.6-1.6c0-0.9-0.7-1.6-1.6-1.6c-0.9,0-1.6,0.7-1.6,1.6C141.5,346.9,142.2,347.7,143.1,347.7
		 M140.8,353.3c0.9,0,1.6-0.7,1.6-1.6c0-0.9-0.7-1.6-1.6-1.6c-0.9,0-1.6,0.7-1.6,1.6C139.2,352.5,139.9,353.3,140.8,353.3
		 M148.8,348.3c0.9,0,1.6-0.7,1.6-1.6c0-0.9-0.7-1.6-1.6-1.6c-0.9,0-1.6,0.7-1.6,1.6C147.2,347.6,147.9,348.3,148.8,348.3
		 M136.1,341c0-0.9-0.7-1.6-1.6-1.6c-0.9,0-1.6,0.7-1.6,1.6c0,0.9,0.7,1.6,1.6,1.6C135.3,342.6,136.1,341.9,136.1,341 M130.5,338.7
		c0.9,0,1.6-0.7,1.6-1.6c0-0.9-0.7-1.6-1.6-1.6s-1.6,0.7-1.6,1.6C128.8,337.9,129.6,338.7,130.5,338.7 M139.4,346.8
		c0-0.9-0.7-1.6-1.6-1.6c-0.9,0-1.6,0.7-1.6,1.6c0,0.9,0.7,1.6,1.6,1.6C138.7,348.5,139.4,347.7,139.4,346.8 M130.9,354.6
		c0.9,0,1.6-0.7,1.6-1.6c0-0.9-0.7-1.6-1.6-1.6c-0.9,0-1.6,0.7-1.6,1.6C129.2,353.9,130,354.6,130.9,354.6 M160.7,343.2
		c0.9,0,1.6-0.7,1.6-1.6c0-0.9-0.7-1.6-1.6-1.6c-0.9,0-1.6,0.7-1.6,1.6C159,342.5,159.8,343.2,160.7,343.2 M166.1,345.9
		c0-0.9-0.7-1.6-1.6-1.6c-0.9,0-1.6,0.7-1.6,1.6c0,0.9,0.7,1.6,1.6,1.6C165.3,347.5,166.1,346.8,166.1,345.9 M153.7,338.1
		c0.9,0,1.6-0.7,1.6-1.6c0-0.9-0.7-1.6-1.6-1.6c-0.9,0-1.6,0.7-1.6,1.6C152.1,337.4,152.8,338.1,153.7,338.1 M152.1,340.4
		c0-0.9-0.7-1.6-1.6-1.6c-0.9,0-1.6,0.7-1.6,1.6c0,0.9,0.7,1.6,1.6,1.6C151.4,342,152.1,341.3,152.1,340.4 M155.5,344.2
		c0.9,0,1.6-0.7,1.6-1.6c0-0.9-0.7-1.6-1.6-1.6c-0.9,0-1.6,0.7-1.6,1.6C153.8,343.5,154.6,344.2,155.5,344.2 M155.7,346.9
		c-0.9,0-1.6,0.7-1.6,1.6c0,0.9,0.7,1.6,1.6,1.6c0.9,0,1.6-0.7,1.6-1.6C157.4,347.6,156.6,346.9,155.7,346.9 M162.2,352.4
		c0.9,0,1.6-0.7,1.6-1.6c0-0.9-0.7-1.6-1.6-1.6c-0.9,0-1.6,0.7-1.6,1.6C160.6,351.7,161.3,352.4,162.2,352.4 M160,355.5
		c-0.9,0-1.6,0.7-1.6,1.6c0,0.9,0.7,1.6,1.6,1.6c0.9,0,1.6-0.7,1.6-1.6C161.6,356.2,160.9,355.5,160,355.5 M155.1,359.6
		c0.9,0,1.6-0.7,1.6-1.6c0-0.9-0.7-1.6-1.6-1.6s-1.6,0.7-1.6,1.6C153.5,358.9,154.2,359.6,155.1,359.6 M128.8,357.2
		c0-0.9-0.7-1.6-1.6-1.6c-0.9,0-1.6,0.7-1.6,1.6c0,0.9,0.7,1.6,1.6,1.6S128.8,358.1,128.8,357.2 M131.1,365.7c0-0.9-0.7-1.6-1.6-1.6
		c-0.9,0-1.6,0.7-1.6,1.6c0,0.9,0.7,1.6,1.6,1.6C130.4,367.4,131.1,366.6,131.1,365.7 M127.5,372.8c0.9,0,1.6-0.7,1.6-1.6
		c0-0.9-0.7-1.6-1.6-1.6c-0.9,0-1.6,0.7-1.6,1.6C125.9,372,126.6,372.8,127.5,372.8 M126.2,367.8c0-0.9-0.7-1.6-1.6-1.6
		c-0.9,0-1.6,0.7-1.6,1.6c0,0.9,0.7,1.6,1.6,1.6C125.5,369.4,126.2,368.7,126.2,367.8 M128.1,374.8c-0.9,0-1.6,0.7-1.6,1.6
		c0,0.9,0.7,1.6,1.6,1.6c0.9,0,1.6-0.7,1.6-1.6C129.8,375.6,129,374.8,128.1,374.8 M127.8,384.3c0.9,0,1.6-0.7,1.6-1.6
		c0-0.9-0.7-1.6-1.6-1.6c-0.9,0-1.6,0.7-1.6,1.6C126.2,383.6,126.9,384.3,127.8,384.3 M135,388.8c0.9,0,1.6-0.7,1.6-1.6
		c0-0.9-0.7-1.6-1.6-1.6s-1.6,0.7-1.6,1.6C133.4,388,134.1,388.8,135,388.8 M129.7,387.2c-0.9,0-1.6,0.7-1.6,1.6
		c0,0.9,0.7,1.6,1.6,1.6c0.9,0,1.6-0.7,1.6-1.6C131.3,388,130.6,387.2,129.7,387.2 M139.9,381.7c0,0.9,0.7,1.6,1.6,1.6
		c0.9,0,1.6-0.7,1.6-1.6c0-0.9-0.7-1.6-1.6-1.6C140.7,380,139.9,380.8,139.9,381.7 M132.4,380.6c0.9,0,1.6-0.7,1.6-1.6
		s-0.7-1.6-1.6-1.6c-0.9,0-1.6,0.7-1.6,1.6C130.7,379.9,131.5,380.6,132.4,380.6 M136.8,381c-0.9,0-1.6,0.7-1.6,1.6
		c0,0.9,0.7,1.6,1.6,1.6c0.9,0,1.6-0.7,1.6-1.6C138.4,381.7,137.7,381,136.8,381 M132,374.6c0.9,0,1.6-0.7,1.6-1.6
		c0-0.9-0.7-1.6-1.6-1.6c-0.9,0-1.6,0.7-1.6,1.6C130.3,373.9,131.1,374.6,132,374.6 M136.1,367.4c0-0.9-0.7-1.6-1.6-1.6
		c-0.9,0-1.6,0.7-1.6,1.6c0,0.9,0.7,1.6,1.6,1.6S136.1,368.3,136.1,367.4 M137.3,363.4c0.9,0,1.6-0.7,1.6-1.6c0-0.9-0.7-1.6-1.6-1.6
		c-0.9,0-1.6,0.7-1.6,1.6C135.7,362.6,136.4,363.4,137.3,363.4 M132.4,361.6c0.9,0,1.6-0.7,1.6-1.6c0-0.9-0.7-1.6-1.6-1.6
		c-0.9,0-1.6,0.7-1.6,1.6C130.8,360.9,131.5,361.6,132.4,361.6 M137.1,356.3c0.9,0,1.6-0.7,1.6-1.6c0-0.9-0.7-1.6-1.6-1.6
		c-0.9,0-1.6,0.7-1.6,1.6C135.5,355.5,136.2,356.3,137.1,356.3 M147.8,351.1c0-0.9-0.7-1.6-1.6-1.6c-0.9,0-1.6,0.7-1.6,1.6
		c0,0.9,0.7,1.6,1.6,1.6C147.1,352.8,147.8,352.1,147.8,351.1 M149.1,356.8c0.9,0,1.6-0.7,1.6-1.6c0-0.9-0.7-1.6-1.6-1.6
		c-0.9,0-1.6,0.7-1.6,1.6C147.5,356,148.2,356.8,149.1,356.8 M156,353.1c0-0.9-0.7-1.6-1.6-1.6c-0.9,0-1.6,0.7-1.6,1.6
		c0,0.9,0.7,1.6,1.6,1.6C155.3,354.7,156,354,156,353.1 M142.8,359.6c0.9,0,1.6-0.7,1.6-1.6c0-0.9-0.7-1.6-1.6-1.6
		c-0.9,0-1.6,0.7-1.6,1.6C141.2,358.8,141.9,359.6,142.8,359.6 M145.7,370c0-0.9-0.7-1.6-1.6-1.6c-0.9,0-1.6,0.7-1.6,1.6
		c0,0.9,0.7,1.6,1.6,1.6C144.9,371.7,145.7,370.9,145.7,370 M143.6,365.8c0.9,0,1.6-0.7,1.6-1.6c0-0.9-0.7-1.6-1.6-1.6
		c-0.9,0-1.6,0.7-1.6,1.6C142,365.1,142.7,365.8,143.6,365.8 M153.2,364.8c0-0.9-0.7-1.6-1.6-1.6c-0.9,0-1.6,0.7-1.6,1.6
		c0,0.9,0.7,1.6,1.6,1.6C152.5,366.4,153.2,365.7,153.2,364.8 M149.3,360.8c0-0.9-0.7-1.6-1.6-1.6c-0.9,0-1.6,0.7-1.6,1.6
		c0,0.9,0.7,1.6,1.6,1.6C148.6,362.4,149.3,361.7,149.3,360.8 M149.5,371c0.9,0,1.6-0.7,1.6-1.6c0-0.9-0.7-1.6-1.6-1.6
		c-0.9,0-1.6,0.7-1.6,1.6C147.8,370.3,148.6,371,149.5,371 M137.7,372c0.9,0,1.6-0.7,1.6-1.6c0-0.9-0.7-1.6-1.6-1.6
		s-1.6,0.7-1.6,1.6C136.1,371.3,136.8,372,137.7,372 M145,376.4c0.9,0,1.6-0.7,1.6-1.6c0-0.9-0.7-1.6-1.6-1.6
		c-0.9,0-1.6,0.7-1.6,1.6C143.4,375.6,144.1,376.4,145,376.4 M141.3,376.5c0-0.9-0.7-1.6-1.7-1.6c-0.9,0-1.6,0.7-1.6,1.6
		c0,0.9,0.7,1.6,1.6,1.6C140.5,378.1,141.3,377.4,141.3,376.5 M147.7,379.1c0-0.9-0.7-1.6-1.6-1.6c-0.9,0-1.6,0.7-1.6,1.6
		c0,0.9,0.7,1.6,1.6,1.6C146.9,380.7,147.7,380,147.7,379.1 M162.9,359.7c-0.9,0-1.6,0.7-1.6,1.6c0,0.9,0.7,1.6,1.6,1.6
		c0.9,0,1.6-0.7,1.6-1.6C164.5,360.4,163.8,359.7,162.9,359.7 M155.3,364.2c0.9,0,1.6-0.7,1.6-1.6c0-0.9-0.7-1.6-1.6-1.6
		c-0.9,0-1.6,0.7-1.6,1.6C153.7,363.4,154.4,364.2,155.3,364.2 M159.6,347.5c0.9,0,1.6-0.7,1.6-1.6c0-0.9-0.7-1.6-1.6-1.6
		c-0.9,0-1.6,0.7-1.6,1.6C158,346.8,158.7,347.5,159.6,347.5 M164.1,339.5c0.9,0,1.6-0.7,1.6-1.6c0-0.9-0.7-1.6-1.6-1.6
		c-0.9,0-1.6,0.7-1.6,1.6C162.5,338.7,163.2,339.5,164.1,339.5 M142.2,288.4c0,0.9,0.7,1.6,1.6,1.6c0.9,0,1.6-0.7,1.6-1.6
		c0-0.9-0.7-1.6-1.6-1.6C142.9,286.8,142.2,287.5,142.2,288.4 M119.8,266.2c-0.9,0-1.6,0.7-1.6,1.6c0,0.9,0.7,1.6,1.6,1.6
		c0.9,0,1.6-0.7,1.6-1.6C121.4,266.9,120.7,266.2,119.8,266.2 M133.6,274.5c-0.9,0-1.6,0.7-1.6,1.6c0,0.9,0.7,1.6,1.6,1.6
		s1.6-0.7,1.6-1.6C135.2,275.3,134.5,274.5,133.6,274.5 M151.6,265.3c0-0.9-0.7-1.6-1.6-1.6c-0.9,0-1.6,0.7-1.6,1.6
		c0,0.9,0.7,1.6,1.6,1.6C150.9,267,151.6,266.2,151.6,265.3 M143,272.7c0,0.9,0.7,1.6,1.6,1.6s1.6-0.7,1.6-1.6
		c0-0.9-0.7-1.6-1.6-1.6S143,271.7,143,272.7 M139.4,266.2c0,0.9,0.7,1.6,1.6,1.6c0.9,0,1.6-0.7,1.6-1.6c0-0.9-0.7-1.6-1.6-1.6
		C140.1,264.6,139.4,265.3,139.4,266.2 M146.7,263.4c0.9,0,1.6-0.7,1.6-1.6c0-0.9-0.7-1.6-1.6-1.6c-0.9,0-1.6,0.7-1.6,1.6
		C145.1,262.6,145.8,263.4,146.7,263.4 M133.5,268.4c-0.9,0-1.6,0.7-1.6,1.6c0,0.9,0.7,1.6,1.6,1.6s1.6-0.7,1.6-1.6
		C135.1,269.1,134.4,268.4,133.5,268.4 M124.5,263c-0.9,0-1.6,0.7-1.6,1.6c0,0.9,0.7,1.6,1.6,1.6c0.9,0,1.6-0.7,1.6-1.6
		C126.1,263.8,125.4,263,124.5,263 M127.3,280.2c0-0.9-0.7-1.6-1.6-1.6c-0.9,0-1.6,0.7-1.6,1.6c0,0.9,0.7,1.6,1.6,1.6
		C126.6,281.8,127.3,281.1,127.3,280.2 M121.1,274.9c-0.9,0-1.6,0.7-1.6,1.6c0,0.9,0.7,1.6,1.6,1.6c0.9,0,1.6-0.7,1.6-1.6
		C122.8,275.6,122.1,274.9,121.1,274.9 M129.2,278.2c0.9,0,1.6-0.7,1.6-1.6c0-0.9-0.7-1.6-1.6-1.6c-0.9,0-1.6,0.7-1.6,1.6
		C127.6,277.4,128.3,278.2,129.2,278.2 M125.1,272.3c0,0.9,0.7,1.6,1.6,1.6c0.9,0,1.6-0.7,1.6-1.6c0-0.9-0.7-1.6-1.6-1.6
		C125.8,270.6,125.1,271.4,125.1,272.3 M131.7,279.8c-0.9,0-1.6,0.7-1.6,1.6c0,0.9,0.7,1.6,1.6,1.6c0.9,0,1.6-0.7,1.6-1.6
		C133.4,280.6,132.6,279.8,131.7,279.8 M124.4,288.9c0,0.9,0.7,1.6,1.6,1.6s1.6-0.7,1.6-1.6c0-0.9-0.7-1.6-1.6-1.6
		C125.1,287.3,124.4,288,124.4,288.9 M90.1,310.4c0.9,0,1.6-0.7,1.6-1.6c0-0.9-0.7-1.6-1.6-1.6c-0.9,0-1.6,0.7-1.6,1.6
		C88.5,309.7,89.2,310.4,90.1,310.4 M82.7,307.3c0-0.9-0.7-1.6-1.6-1.6c-0.9,0-1.6,0.7-1.6,1.6c0,0.9,0.7,1.6,1.6,1.6
		C82,308.9,82.7,308.2,82.7,307.3 M85.3,308.6c0.9,0,1.6-0.7,1.6-1.6c0-0.9-0.7-1.6-1.6-1.6c-0.9,0-1.6,0.7-1.6,1.6
		C83.7,307.9,84.4,308.6,85.3,308.6 M72,301.1c0.9,0,1.6-0.7,1.6-1.6c0-0.9-0.7-1.6-1.6-1.6c-0.9,0-1.6,0.7-1.6,1.6
		C70.4,300.4,71.1,301.1,72,301.1 M75.7,303.3c0.9,0,1.6-0.7,1.6-1.6c0-0.9-0.7-1.6-1.6-1.6c-0.9,0-1.6,0.7-1.6,1.6
		C74.1,302.6,74.8,303.3,75.7,303.3 M73.2,290.7c-0.9,0-1.6,0.7-1.6,1.6c0,0.9,0.7,1.6,1.6,1.6c0.9,0,1.6-0.7,1.6-1.6
		C74.8,291.5,74.1,290.7,73.2,290.7 M70.6,308.7c0-0.9-0.7-1.6-1.6-1.6c-0.9,0-1.6,0.7-1.6,1.6c0,0.9,0.7,1.6,1.6,1.6
		C69.9,310.3,70.6,309.6,70.6,308.7 M84.5,313.1c0-0.9-0.7-1.6-1.6-1.6c-0.9,0-1.6,0.7-1.6,1.6s0.7,1.6,1.6,1.6
		C83.7,314.7,84.5,314,84.5,313.1 M74.6,308.5c0-0.9-0.7-1.6-1.6-1.6c-0.9,0-1.6,0.7-1.6,1.6c0,0.9,0.7,1.6,1.6,1.6
		C73.9,310.2,74.6,309.5,74.6,308.5 M78.6,312.3c0.9,0,1.6-0.7,1.6-1.6c0-0.9-0.7-1.6-1.6-1.6c-0.9,0-1.6,0.7-1.6,1.6
		C76.9,311.6,77.7,312.3,78.6,312.3 M76.8,308.3c0.9,0,1.6-0.7,1.6-1.6c0-0.9-0.7-1.6-1.6-1.6c-0.9,0-1.6,0.7-1.6,1.6
		C75.2,307.6,75.9,308.3,76.8,308.3 M69.6,302.9c0-0.9-0.7-1.6-1.6-1.6c-0.9,0-1.6,0.7-1.6,1.6c0,0.9,0.7,1.6,1.6,1.6
		C68.8,304.6,69.6,303.8,69.6,302.9 M64.8,296.5c-0.9,0-1.6,0.7-1.6,1.6c0,0.9,0.7,1.6,1.6,1.6c0.9,0,1.6-0.7,1.6-1.6
		C66.5,297.2,65.8,296.5,64.8,296.5 M78.8,300.3c0.9,0,1.6-0.7,1.6-1.6c0-0.9-0.7-1.6-1.6-1.6c-0.9,0-1.6,0.7-1.6,1.6
		C77.1,299.5,77.9,300.3,78.8,300.3 M94.7,294.8c-0.9,0-1.6,0.7-1.6,1.6c0,0.9,0.7,1.6,1.6,1.6c0.9,0,1.6-0.7,1.6-1.6
		C96.4,295.5,95.6,294.8,94.7,294.8 M113.6,310.7c0.9,0,1.6-0.7,1.6-1.6c0-0.9-0.7-1.6-1.6-1.6c-0.9,0-1.6,0.7-1.6,1.6
		C111.9,310,112.7,310.7,113.6,310.7 M112.2,300.5c0.9,0,1.6-0.7,1.6-1.6c0-0.9-0.7-1.6-1.6-1.6c-0.9,0-1.6,0.7-1.6,1.6
		C110.6,299.8,111.3,300.5,112.2,300.5 M117.8,305.9c0.9,0,1.6-0.7,1.6-1.6c0-0.9-0.7-1.6-1.6-1.6c-0.9,0-1.6,0.7-1.6,1.6
		C116.1,305.2,116.8,305.9,117.8,305.9 M120.2,299.6c0.9,0,1.6-0.7,1.6-1.6c0-0.9-0.7-1.6-1.6-1.6c-0.9,0-1.6,0.7-1.6,1.6
		C118.6,298.9,119.3,299.6,120.2,299.6 M103.5,292.3c-0.9,0-1.6,0.7-1.6,1.6c0,0.9,0.7,1.6,1.6,1.6c0.9,0,1.6-0.7,1.6-1.6
		C105.2,293,104.4,292.3,103.5,292.3 M102.4,281.6c0-0.9-0.7-1.6-1.6-1.6c-0.9,0-1.6,0.7-1.6,1.6c0,0.9,0.7,1.6,1.6,1.6
		C101.7,283.2,102.4,282.5,102.4,281.6 M98.2,286.3c-0.9,0-1.6,0.7-1.6,1.6c0,0.9,0.7,1.6,1.6,1.6c0.9,0,1.6-0.7,1.6-1.6
		C99.8,287,99.1,286.3,98.2,286.3 M98.1,295.7c0.9,0,1.6-0.7,1.6-1.6c0-0.9-0.7-1.6-1.6-1.6c-0.9,0-1.6,0.7-1.6,1.6
		C96.4,294.9,97.2,295.7,98.1,295.7 M77,282c0-0.9-0.7-1.6-1.6-1.6c-0.9,0-1.6,0.7-1.6,1.6c0,0.9,0.7,1.6,1.6,1.6
		C76.2,283.6,77,282.9,77,282 M76.4,286.8c0-0.9-0.7-1.6-1.6-1.6c-0.9,0-1.6,0.7-1.6,1.6c0,0.9,0.7,1.6,1.6,1.6
		C75.6,288.4,76.4,287.7,76.4,286.8 M78.2,291.2c0.9,0,1.6-0.7,1.6-1.6c0-0.9-0.7-1.6-1.6-1.6c-0.9,0-1.6,0.7-1.6,1.6
		C76.6,290.5,77.3,291.2,78.2,291.2 M68.9,281.1c-0.9,0-1.6,0.7-1.6,1.6c0,0.9,0.7,1.6,1.6,1.6c0.9,0,1.6-0.7,1.6-1.6
		C70.5,281.8,69.8,281.1,68.9,281.1 M80.5,286.9c0,0.9,0.7,1.6,1.6,1.6c0.9,0,1.6-0.7,1.6-1.6c0-0.9-0.7-1.6-1.6-1.6
		C81.3,285.3,80.5,286,80.5,286.9 M81.7,262.6c-0.9,0-1.6,0.7-1.6,1.6c0,0.9,0.7,1.6,1.6,1.6c0.9,0,1.6-0.7,1.6-1.6
		C83.4,263.3,82.6,262.6,81.7,262.6 M85.9,268c0.9,0,1.6-0.7,1.6-1.6c0-0.9-0.7-1.6-1.6-1.6s-1.6,0.7-1.6,1.6
		C84.2,267.2,85,268,85.9,268 M92.2,269.2c-0.9,0-1.6,0.7-1.6,1.6c0,0.9,0.7,1.6,1.6,1.6c0.9,0,1.6-0.7,1.6-1.6
		C93.8,269.9,93.1,269.2,92.2,269.2 M93.8,276.5c0-0.9-0.7-1.6-1.6-1.6c-0.9,0-1.6,0.7-1.6,1.6c0,0.9,0.7,1.6,1.6,1.6
		C93.1,278.1,93.8,277.4,93.8,276.5 M94.9,265.9c0-0.9-0.7-1.6-1.6-1.6c-0.9,0-1.6,0.7-1.6,1.6c0,0.9,0.7,1.6,1.6,1.6
		C94.1,267.6,94.9,266.8,94.9,265.9 M98.2,267.6c0.9,0,1.6-0.7,1.6-1.6c0-0.9-0.7-1.6-1.6-1.6c-0.9,0-1.6,0.7-1.6,1.6
		C96.5,266.8,97.2,267.6,98.2,267.6 M103.2,261.1c0-0.9-0.7-1.6-1.6-1.6c-0.9,0-1.6,0.7-1.6,1.6c0,0.9,0.7,1.6,1.6,1.6
		C102.5,262.7,103.2,262,103.2,261.1 M27.5,349c0-0.9-0.7-1.6-1.6-1.6c-0.9,0-1.6,0.7-1.6,1.6c0,0.9,0.7,1.6,1.6,1.6
		S27.5,349.9,27.5,349"/>
	<path class="st1" d="M275.8,337.6c-3.6-0.7-8.8-1.9-8.8-7c0-2.5,1.3-4,2.3-4.8c2.2-1.9,4.9-2.1,6.6-2.1c1.8,0,4.4,0.2,6.7,1.8
		c2.5,1.8,2.9,4.3,3.2,5.8l-3.3,0.2c0-0.8-0.1-2.7-2-4.1c-1.3-0.9-2.8-1.2-4.4-1.2c-3,0-5.6,1.2-5.6,3.9c0,2.7,2.7,3.4,4.9,3.9
		l2.7,0.7c1.9,0.4,2.9,0.7,3.9,1.1c3.7,1.5,4.3,4.5,4.3,6.2c0,2.3-0.9,4.5-3.2,6c-2.4,1.6-5.2,1.8-6.7,1.8c-2.2,0-9.9-0.3-10.5-8.5
		l3.5-0.5c0,0.9,0.1,3.1,2,4.8c1.4,1.2,3.3,1.6,5.1,1.6c3.5,0,6.2-1.7,6.2-4.9c0-2.9-2.3-3.6-4.7-4.1L275.8,337.6z"/>
	<polygon class="st1" points="302.3,332.5 306.2,344.8 310.5,332.5 313.4,332.5 307.4,349 304.9,349 301,336.7 296.9,349 294.4,349
		288.6,332.5 291.6,332.5 295.8,344.8 299.8,332.5 	"/>
	<path class="st1" d="M319.5,327.5h-2.7v-3.2h2.7V327.5z M319.5,349h-2.7v-16.5h2.7V349z"/>
	<path class="st1" d="M330,341.7c-2.7-0.6-5.9-1.4-5.9-4.8c0-3,2.6-4.9,6.4-4.9c3.2,0,6.5,1.5,7.1,5.4l-3,0.4c0-1-0.1-1.8-1.2-2.7
		c-1.1-0.8-2.3-1-3.2-1c-2.2,0-3.3,1.3-3.3,2.4c0,1.6,1.8,2.1,4,2.6l1.6,0.4c2,0.5,5.5,1.3,5.5,4.8c0,2.7-2.4,5.2-6.9,5.2
		c-1.9,0-3.8-0.4-5.1-1.3c-0.5-0.4-2.1-1.7-2.5-4.5l3.2-0.5c0,0.7,0,2.1,1.2,3.2c1,0.8,2.2,0.9,3.3,0.9c2.5,0,3.9-0.9,3.9-2.7
		c0-1.9-1.4-2.2-3.4-2.6L330,341.7z"/>
	<path class="st1" d="M347.6,341.7c-2.7-0.6-5.9-1.4-5.9-4.8c0-3,2.6-4.9,6.4-4.9c3.2,0,6.5,1.5,7.1,5.4l-3,0.4c0-1-0.1-1.8-1.2-2.7
		c-1.1-0.8-2.3-1-3.2-1c-2.2,0-3.3,1.3-3.3,2.4c0,1.6,1.8,2.1,4,2.6l1.6,0.4c2,0.5,5.5,1.3,5.5,4.8c0,2.7-2.4,5.2-6.9,5.2
		c-1.9,0-3.8-0.4-5.1-1.3c-0.5-0.4-2.1-1.7-2.5-4.5l3.2-0.5c0,0.7,0,2.1,1.2,3.2c1,0.8,2.2,0.9,3.3,0.9c2.5,0,3.9-0.9,3.9-2.7
		c0-1.9-1.4-2.2-3.4-2.6L347.6,341.7z"/>
	<rect x="370" y="323.7" class="st1" width="3.4" height="25.3"/>
	<path class="st1" d="M381.9,332.1v2.5c1.6-2.8,4.3-3,5.3-3c2.1,0,4.7,1.1,5.6,3.9c0.3,1,0.3,2,0.3,3.5V349h-2.8v-9.6
		c0-1.7,0-2.2-0.2-2.8c-0.5-1.6-2.1-2.3-3.6-2.3c-1.3,0-2.3,0.4-3.2,1.3c-1.3,1.3-1.3,2.5-1.3,3.8v9.6H379v-16.9H381.9z"/>
	<path class="st1" d="M401.9,332.1h3.1v2.4h-3.1v9.7c0,2,0,2.9,1.2,2.9c0.5,0,1.3-0.2,1.9-0.4v2.4c-0.5,0.1-1.7,0.3-2.8,0.3
		c-3.3,0-3.3-1.6-3.3-3.8v-11h-2.7v-2.4h2.7v-5.3h2.9V332.1z"/>
	<path class="st1" d="M423.3,343.8c-0.4,1.1-1.9,5.7-7.6,5.7c-5,0-8.3-3.4-8.3-9.1c0-6.4,4.6-8.8,8.2-8.8c3.1,0,6.4,1.7,7.4,6
		c0.3,1.4,0.3,2.7,0.3,3.4h-12.8c-0.1,2.8,1.4,6.3,5.4,6.3c2.5,0,4-1.7,4.5-3.9L423.3,343.8z M420.2,339c-0.3-4.4-3.4-5.2-4.8-5.2
		c-2.4,0-4.5,1.8-4.8,5.2H420.2z"/>
	<path class="st1" d="M430.5,332.1v3.1c1.6-3.2,4.7-3.3,5.8-3.3v3.1c-0.4,0-0.7-0.1-1.2-0.1c-1.6,0-3.1,0.6-3.9,2
		c-0.8,1.3-0.7,2.7-0.7,4.3v7.8h-2.9v-16.9H430.5z"/>
	<path class="st1" d="M454.7,342.9c-0.1,0.7-0.3,1.6-1,2.9c-1.4,2.6-3.8,3.7-6.9,3.7c-6.2,0-8.4-4.6-8.4-8.8c0-4.8,2.5-9.1,8.2-9.1
		c2.7,0,6.7,1,7.8,5.7l-3.2,0.3c-0.1-0.7-0.7-3.9-4.5-3.9c-4.9,0-5.1,5.3-5.1,6.8c0,1.8,0.4,3.4,1.1,4.6c1,1.5,2.4,2.3,4.2,2.3
		c4.1,0,4.6-3.4,4.8-4.7L454.7,342.9z"/>
	<path class="st1" d="M465.8,349.5c-5.8,0-8.3-4.4-8.3-8.8c0-3.8,1.9-9.1,8.4-9.1c5.6,0,8.2,4.3,8.1,9
		C474,345.7,470.9,349.5,465.8,349.5 M470.7,338.2c-0.6-3.3-2.8-4.3-4.8-4.3c-3.8,0-5.4,3-5.4,6.8c0,3.5,1.5,6.5,5.2,6.5
		c4.8,0,5.1-4.9,5.2-6.7C470.9,339.5,470.8,338.7,470.7,338.2"/>
	<path class="st1" d="M485.3,349.5c-5.8,0-8.3-4.4-8.3-8.8c0-3.8,1.9-9.1,8.4-9.1c5.6,0,8.2,4.3,8.1,9
		C493.5,345.7,490.5,349.5,485.3,349.5 M490.3,338.2c-0.6-3.3-2.8-4.3-4.8-4.3c-3.8,0-5.4,3-5.4,6.8c0,3.5,1.5,6.5,5.2,6.5
		c4.8,0,5.1-4.9,5.2-6.7C490.5,339.5,490.4,338.7,490.3,338.2"/>
	<path class="st1" d="M497.8,332.1h2.8v2.4c0.6-0.6,0.9-1.1,1.6-1.5c1.1-0.8,2.8-1.4,4.4-1.4c3.7,0,7.6,2.9,7.6,9
		c0,4.8-2.6,8.9-7.9,8.9c-2.3,0-4.3-0.8-5.7-2.5v10h-2.8V332.1z M500.7,340.8c0,3.7,1.8,6.2,5.3,6.2c1,0,2.1-0.2,3-0.8
		c0.9-0.6,2.4-2.3,2.4-5.7c0-4-2.2-6.4-5.5-6.3C502.6,334.4,500.7,337,500.7,340.8"/>
	<path class="st1" d="M533.6,343.8c-0.4,1.1-1.9,5.7-7.6,5.7c-5,0-8.3-3.4-8.3-9.1c0-6.4,4.6-8.8,8.2-8.8c3.1,0,6.4,1.7,7.4,6
		c0.3,1.4,0.3,2.7,0.3,3.4h-12.8c-0.1,2.8,1.4,6.3,5.4,6.3c2.5,0,4-1.7,4.5-3.9L533.6,343.8z M530.5,339c-0.3-4.4-3.4-5.2-4.8-5.2
		c-2.4,0-4.5,1.8-4.8,5.2H530.5z"/>
	<path class="st1" d="M540.8,332.1v3.1c1.6-3.2,4.7-3.3,5.8-3.3v3.1c-0.4,0-0.7-0.1-1.2-0.1c-1.6,0-3.1,0.6-3.9,2
		c-0.8,1.3-0.7,2.7-0.7,4.3v7.8H538v-16.9H540.8z"/>
	<path class="st1" d="M560,338.9v-0.4c0-1.8,0-4.7-3.8-4.7c-3.6,0-3.6,2.7-3.6,3.5l-3-0.2c0.1-0.6,0.1-1.5,0.7-2.5c1-1.9,3-3,5.8-3
		c1.6,0,3.6,0.4,4.9,1.4c1.9,1.5,1.9,3.4,1.8,5.7v5.5c0,1.6,0,2.4,1.2,2.4c0.4,0,0.7-0.1,0.9-0.2v2.5c-0.5,0.1-1,0.3-1.8,0.3
		c-1.3,0-2.7-0.4-2.9-2.5c-0.9,0.9-2.6,2.8-5.8,2.8c-3.3,0-5.7-2-5.7-4.8c0-0.9,0.2-1.8,0.8-2.5c1-1.4,2.8-2.6,7.8-3L560,338.9z
		 M555.6,341.5c-3.2,0.7-3.7,1.9-3.7,3c0,1.4,1.1,2.5,3.2,2.5c2,0,3.7-0.8,4.5-2.5c0.4-0.9,0.5-1.3,0.5-3.8
		C558.9,340.9,557.4,341.1,555.6,341.5"/>
	<path class="st1" d="M571.9,332.1h3.1v2.4h-3.1v9.7c0,2,0,2.9,1.2,2.9c0.5,0,1.3-0.2,1.9-0.4v2.4c-0.5,0.1-1.7,0.3-2.8,0.3
		c-3.3,0-3.3-1.6-3.3-3.8v-11h-2.7v-2.4h2.7v-5.3h2.9V332.1z"/>
	<path class="st1" d="M581.8,327h-2.8v-3.3h2.8V327z M581.8,349h-2.8v-16.9h2.8V349z"/>
	<path class="st1" d="M594,349.5c-5.8,0-8.3-4.4-8.3-8.8c0-3.8,1.9-9.1,8.4-9.1c5.6,0,8.2,4.3,8.1,9
		C602.2,345.7,599.1,349.5,594,349.5 M598.9,338.2c-0.6-3.3-2.8-4.3-4.8-4.3c-3.8,0-5.4,3-5.4,6.8c0,3.5,1.5,6.5,5.2,6.5
		c4.8,0,5.1-4.9,5.2-6.7C599.1,339.5,599,338.7,598.9,338.2"/>
	<path class="st1" d="M609.4,332.1v2.5c1.6-2.8,4.3-3,5.3-3c2.1,0,4.7,1.1,5.6,3.9c0.3,1,0.3,2,0.3,3.5V349h-2.8v-9.6
		c0-1.7,0-2.2-0.2-2.8c-0.5-1.6-2.1-2.3-3.6-2.3c-1.3,0-2.3,0.4-3.2,1.3c-1.3,1.3-1.3,2.5-1.3,3.8v9.6h-2.9v-16.9H609.4z"/>
</g>
</svg>
